<?xml version="1.0" encoding="utf-8"?>
<!-- Generator: Adobe Illustrator 24.1.2, SVG Export Plug-In . SVG Version: 6.00 Build 0)  -->
<svg version="1.1" id="Layer_1" xmlns="http://www.w3.org/2000/svg" xmlns:xlink="http://www.w3.org/1999/xlink" x="0px" y="0px"
	 viewBox="0 0 750 500" style="enable-background:new 0 0 750 500;" xml:space="preserve">
<style type="text/css">
	.st0{fill:none;}
	.st1{fill:#FFFFFF;stroke:#FFFFFF;stroke-width:0.25;stroke-miterlimit:10;}
	.st2{fill:#F6FAFC;stroke:#F6FAFC;stroke-width:0.25;stroke-miterlimit:10;}
	.st3{fill:none;stroke:#FFFFFF;stroke-linecap:round;stroke-linejoin:round;stroke-miterlimit:10;}
	.st4{fill:#FFFFFF;}
	.st5{fill:#F6FAFC;}
	.st6{fill:#FFFFFF;stroke:#FFFFFF;stroke-linecap:round;stroke-linejoin:round;stroke-miterlimit:10;}
	.st7{opacity:0.45;fill:url(#SVGID_1_);}
</style>
<pattern  x="357" y="240" width="162.6" height="94.2" patternUnits="userSpaceOnUse" id="New_Pattern_3" viewBox="36.4 -126.6 162.6 94.2" style="overflow:visible;">
	<g>
		<rect x="36.4" y="-126.6" class="st0" width="162.6" height="94.2"/>
		<g>
			<g>
				<path class="st1" d="M183.2-75.9l2.4-2.5c0.3-0.3,0.8-0.3,1.1,0l6.6,6.6c0.3,0.3,0.3,0.8,0,1.1l-2.4,2.5c-0.3,0.3-0.8,0.3-1.1,0
					l-6.6-6.6C182.9-75.1,182.9-75.5,183.2-75.9z M192.9-71.1c0.1-0.1,0.1-0.2,0-0.3l-6.6-6.6c-0.1-0.1-0.2-0.1-0.3,0l-2.4,2.5
					c-0.1,0.1-0.1,0.2,0,0.3l6.6,6.6c0.1,0.1,0.2,0.1,0.3,0L192.9-71.1z"/>
				<path class="st1" d="M182.2-76.8l2.4-2.5c0.3-0.3,0.8-0.3,1.1,0l7.6,7.5c0.3,0.3,0.3,0.8,0,1.1l-2.4,2.5c-0.3,0.3-0.8,0.3-1.1,0
					l-7.6-7.5C181.9-76,181.9-76.5,182.2-76.8z M192.9-71.1c0.1-0.1,0.1-0.2,0-0.3l-7.6-7.5c-0.1-0.1-0.2-0.1-0.3,0l-2.4,2.5
					c-0.1,0.1-0.1,0.2,0,0.3l7.6,7.5c0.1,0.1,0.2,0.1,0.3,0L192.9-71.1z"/>
				<path class="st1" d="M186.9-71.5l3.1-3.2c0.1-0.1,0.3-0.1,0.4,0l0.7,0.7c0.1,0.1,0.1,0.3,0,0.4l-3.1,3.2c-0.1,0.1-0.3,0.1-0.4,0
					l-0.7-0.7C186.7-71.2,186.7-71.4,186.9-71.5z M190.2-74l-2.7,2.7l0.3,0.3l2.7-2.7L190.2-74z"/>
				<path class="st1" d="M186.9-71.5l3.1-3.2c0.1-0.1,0.3-0.1,0.4,0l0.4,0.4c0.1,0.1,0.1,0.3,0,0.4c-0.1,0.1-0.3,0.1-0.4,0l-0.2-0.2
					l-2.7,2.7l0.2,0.2c0.1,0.1,0.1,0.3,0,0.4c-0.1,0.1-0.3,0.1-0.4,0l-0.4-0.4C186.7-71.2,186.7-71.4,186.9-71.5z"/>
			</g>
			<g>
				<path class="st2" d="M180-32.1C180-32,180-32,180-32.1l-1.9-0.1c-0.1,0-0.2-0.1-0.2-0.2c0-0.1,0-0.2,0.1-0.2l17.1-8.9
					c0.4-0.2,0.8-0.6,0.9-1.1c0.1-0.5,0.1-1-0.1-1.4l-10.8-20.7c-0.5-0.9-1.5-1.2-2.4-0.9c-0.1,0-0.2,0-0.2,0
					c-0.1,0-0.1-0.1-0.1-0.2c0-0.1,0.1-0.1,0.1-0.2l0.4-0.2c0,0,0,0,0,0c1.2-0.6,2.6-0.2,3.2,1l11.2,21.4c0.3,0.6,0.4,1.2,0.2,1.8
					c-0.2,0.6-0.6,1.1-1.2,1.4L180-32.1C180.1-32.1,180.1-32.1,180-32.1z M179-32.5l0.9,0.1l16.3-8.5c0.5-0.2,0.8-0.6,1-1.1
					c0.2-0.5,0.1-1-0.1-1.5l-11.2-21.4c-0.3-0.6-1-1-1.6-1c0.5,0.2,1,0.6,1.3,1.1l10.8,20.7c0.3,0.5,0.3,1.2,0.2,1.8
					c-0.2,0.6-0.6,1.1-1.1,1.4L179-32.5z"/>
				<path class="st2" d="M182.7-65.6l-0.1-0.2l-0.1,0.1l0,0l0.1-0.1l-0.1-0.2l0.3-0.1l0.3,0.4L182.7-65.6
					C182.8-65.6,182.7-65.6,182.7-65.6L182.7-65.6L182.7-65.6z"/>
				<path class="st2" d="M178.3-32.2C178.2-32.2,178.2-32.2,178.3-32.2l-1.3-0.1c-0.1,0-0.2-0.1-0.2-0.2c0-0.1,0-0.2,0.1-0.2
					l16.4-8.5c0.9-0.5,1.3-1.7,0.8-2.6l-11.2-21.4c-0.1-0.2-0.2-0.3-0.3-0.4c-0.1-0.1-0.1-0.1-0.1-0.2c0-0.1,0.1-0.1,0.1-0.2
					c1.1-0.5,2.4,0,2.9,1.1l10.8,20.7v0c0.3,0.5,0.3,1.2,0.2,1.8c-0.2,0.6-0.6,1.1-1.1,1.4L178.3-32.2
					C178.3-32.2,178.3-32.2,178.3-32.2z M177.8-32.6l0.4,0l17.1-8.9c0.4-0.2,0.8-0.6,0.9-1.1c0.1-0.5,0.1-1-0.1-1.4c0,0,0,0,0,0
					l-10.8-20.7c-0.4-0.8-1.3-1.1-2.1-1c0.1,0.1,0.1,0.2,0.2,0.3L194.5-44c0.6,1.2,0.2,2.6-1,3.2L177.8-32.6z"/>
				<path class="st2" d="M177-32.2c0,0-0.1,0-0.1,0c-0.1,0-0.1-0.1-0.1-0.1l-13.2-25.3c-0.1-0.1,0-0.2,0.1-0.3l16.4-8.5
					c0.9-0.5,2.1-0.3,2.8,0.5c0,0,0,0,0,0c0.2,0.2,0.3,0.3,0.4,0.5L194.5-44c0.6,1.2,0.2,2.6-1,3.2L177-32.2
					C177.1-32.2,177.1-32.2,177-32.2z M164.1-57.6l13,24.9l16.2-8.4c0.9-0.5,1.3-1.7,0.8-2.6l-11.2-21.4c-0.1-0.1-0.1-0.2-0.2-0.3
					c-0.1,0-0.3-0.2-0.3-0.3c-0.6-0.5-1.4-0.6-2.1-0.2L164.1-57.6z"/>
				<path class="st2" d="M177-32.2c0,0-0.1,0-0.1,0c-0.1,0-0.1-0.1-0.1-0.1l-13.2-25.3c-0.1-0.1,0-0.2,0.1-0.3l2.3-1.2
					c0.1,0,0.1,0,0.2,0c0.1,0,0.1,0.1,0.1,0.1l13.2,25.3c0.1,0.1,0,0.2-0.1,0.3L177-32.2C177.1-32.2,177.1-32.2,177-32.2z
					 M164.1-57.6l13,24.9l1.9-1l-13-24.9L164.1-57.6z"/>
				<path class="st2" d="M174.8-52c0,0-0.1,0-0.1,0c-0.1,0-0.1-0.1-0.1-0.1l-2.9-5.6c-0.1-0.1,0-0.2,0.1-0.3l7.1-3.7
					c0.1,0,0.1,0,0.2,0c0.1,0,0.1,0.1,0.1,0.1l2.9,5.6c0.1,0.1,0,0.2-0.1,0.3L174.8-52C174.8-52,174.8-52,174.8-52z M172.1-57.7
					l2.7,5.2l6.8-3.5l-2.7-5.2L172.1-57.7z"/>
			</g>
			<g>
				<g>
					<path class="st2" d="M204.4-49.2c-1.5-0.4-2.9-1.2-3.9-2.4c-1.4-1.6-2.2-3.7-2-5.9c0-0.6,0.1-1.2,0.3-1.8
						c0-0.2,0.2-0.3,0.4-0.2l15.1,0.9c0.2,0,0.3,0.1,0.3,0.3c0.1,0.6,0.1,1.2,0.1,1.8c-0.3,4.5-4.1,7.9-8.6,7.6
						C205.5-49,205-49.1,204.4-49.2z M199.4-58.9c-0.1,0.5-0.2,0.9-0.2,1.4c-0.1,2,0.5,3.9,1.9,5.4c1.3,1.5,3.1,2.4,5.1,2.5
						c4.1,0.2,7.6-2.9,7.8-7c0-0.5,0-1-0.1-1.4L199.4-58.9z"/>
					<path class="st2" d="M204-47.6c-1.8-0.5-3.5-1.5-4.7-2.9c-1.7-2-2.6-4.5-2.5-7.1c0.2-3.9,2.9-7.4,6.6-8.7l0.6-10.9l-0.3,0
						c-0.3,0-0.6-0.2-0.8-0.4c-0.2-0.2-0.3-0.5-0.3-0.8c0-0.6,0.6-1.1,1.2-1.1l8,0.5c0.6,0,1.1,0.6,1.1,1.2c0,0.3-0.2,0.6-0.4,0.8
						c-0.2,0.2-0.5,0.3-0.8,0.3l-0.3,0l-0.6,10.9c3.5,1.7,5.7,5.5,5.5,9.4c-0.3,5.4-5,9.5-10.3,9.2C205.3-47.3,204.6-47.4,204-47.6z
						 M204.4-77.8c0.2,0,0.3,0.2,0.3,0.4L204-66c0,0.1-0.1,0.3-0.2,0.3c-3.6,1.1-6.1,4.4-6.3,8.1c-0.3,4.4,2.6,8.2,6.7,9.3
						c0.6,0.2,1.2,0.3,1.8,0.3c2.4,0.1,4.8-0.7,6.6-2.3c1.8-1.6,2.9-3.8,3-6.3c0.2-3.7-1.9-7.3-5.3-8.8c-0.1-0.1-0.2-0.2-0.2-0.3
						l0.7-11.5c0-0.2,0.2-0.3,0.4-0.3l0.6,0c0.1,0,0.2,0,0.3-0.1c0.1-0.1,0.1-0.2,0.1-0.3c0-0.2-0.2-0.4-0.4-0.5l-8-0.5
						c-0.2,0-0.4,0.2-0.5,0.4c0,0.1,0,0.2,0.1,0.3c0.1,0.1,0.2,0.1,0.3,0.1L204.4-77.8C204.4-77.8,204.4-77.8,204.4-77.8z"/>
				</g>
			</g>
		</g>
		<g>
			<g>
				<path class="st1" d="M100.9-29.7l2.4-2.5c0.3-0.3,0.8-0.3,1.1,0l7.6,7.5c0.3,0.3,0.3,0.8,0,1.1l-2.4,2.5c-0.3,0.3-0.8,0.3-1.1,0
					l-7.6-7.5C100.6-28.9,100.6-29.4,100.9-29.7z M111.6-24c0.1-0.1,0.1-0.2,0-0.3l-7.6-7.5c-0.1-0.1-0.2-0.1-0.3,0l-2.4,2.5
					c-0.1,0.1-0.1,0.2,0,0.3l7.6,7.5c0.1,0.1,0.2,0.1,0.3,0L111.6-24z"/>
			</g>
			<g>
				<g>
					<path class="st2" d="M122.7-0.5c-1.8-0.5-3.5-1.5-4.7-2.9c-1.7-2-2.6-4.5-2.5-7.1c0.2-3.9,2.9-7.4,6.6-8.7l0.6-10.9l-0.3,0
						c-0.3,0-0.6-0.2-0.8-0.4c-0.2-0.2-0.3-0.5-0.3-0.8c0-0.6,0.6-1.1,1.2-1.1l8,0.5c0.6,0,1.1,0.6,1.1,1.2c0,0.3-0.2,0.6-0.4,0.8
						c-0.2,0.2-0.5,0.3-0.8,0.3l-0.3,0l-0.6,10.9c3.5,1.7,5.7,5.5,5.5,9.4c-0.3,5.4-5,9.5-10.3,9.2C124-0.2,123.3-0.3,122.7-0.5z
						 M123.2-30.7c0.2,0,0.3,0.2,0.3,0.4l-0.7,11.5c0,0.1-0.1,0.3-0.2,0.3c-3.6,1.1-6.1,4.4-6.3,8.1c-0.3,4.4,2.6,8.2,6.7,9.3
						c0.6,0.2,1.2,0.3,1.8,0.3c2.4,0.1,4.8-0.7,6.6-2.3c1.8-1.6,2.9-3.8,3-6.3c0.2-3.7-1.9-7.3-5.3-8.8c-0.1-0.1-0.2-0.2-0.2-0.3
						l0.7-11.5c0-0.2,0.2-0.3,0.4-0.3l0.6,0c0.1,0,0.2,0,0.3-0.1c0.1-0.1,0.1-0.2,0.1-0.3c0-0.2-0.2-0.4-0.4-0.5l-8-0.5
						c-0.2,0-0.4,0.2-0.5,0.4c0,0.1,0,0.2,0.1,0.3c0.1,0.1,0.2,0.1,0.3,0.1L123.2-30.7C123.1-30.7,123.1-30.7,123.2-30.7z"/>
				</g>
			</g>
		</g>
		<g>
			<g>
				
					<rect x="31.8" y="-21.5" transform="matrix(0.3074 -0.9516 0.9516 0.3074 51.6389 30.0422)" class="st3" width="29.3" height="2.2"/>
				
					<rect x="34.5" y="-23.2" transform="matrix(0.3078 -0.9514 0.9514 0.3078 54.3648 32.0432)" class="st3" width="29.3" height="3.6"/>
				
					<rect x="37.3" y="-23.3" transform="matrix(0.3077 -0.9515 0.9515 0.3077 57.1177 34.0413)" class="st3" width="29.3" height="2.2"/>
				<path class="st3" d="M40-37c-0.5-1.5,0.3-3.1,1.9-3.6l2.1-0.7c1.5-0.5,3.1,0.3,3.6,1.9l0.5,1.6c0.5,1.5-0.8,1.8-2.3,2.3
					l-2.1,0.7c-1.5,0.5-2.7,1-3.2-0.6L40-37z"/>
				<path class="st4" d="M40.3-34.4c-0.1-0.3,0.1-0.6,0.4-0.7l7.6-2.5c0.3-0.1,0.6,0.1,0.7,0.4l0,0c0.1,0.3-0.1,0.6-0.4,0.7L41-34
					C40.7-33.9,40.4-34.1,40.3-34.4L40.3-34.4z"/>
			</g>
			<g>
				<path class="st2" d="M65.4-10.2c-0.2,0.1-0.4,0-0.6-0.2c-1.9-3.6-2.3-7.7-1.2-11.5c1.1-3.8,3.6-6.9,7.1-8.7
					c7.1-3.7,16.1-0.7,19.9,6.7c0.1,0.1,0.1,0.2,0,0.4c0,0.1-0.1,0.2-0.2,0.3L65.4-10.2C65.5-10.3,65.4-10.2,65.4-10.2z M73.7-30.8
					c-0.8,0.2-1.7,0.6-2.5,1c-3.2,1.7-5.6,4.6-6.6,8.1c-1,3.4-0.7,7.1,0.9,10.3l24.1-12.6C86.3-29.7,79.7-32.5,73.7-30.8z"/>
			</g>
			<g>
				<path class="st2" d="M74.4-38.7c-1.7,2.6-4.2,4.2-7.1,4.5c-1,0.1-2-0.1-2.7-0.4c-0.4,0.1-0.9,0.1-1.3,0.1c-0.5,0-1-0.1-1.5-0.3
					c0,0,0,0-0.1,0c-2.7-0.9-4.8-3-5.8-6c-1.2-3.5-0.6-7.5,1.3-10.4c1-1.5,2.3-2.4,3.8-2.6c2.6-0.4,5,1.1,5.6,1.5
					c0.1-0.1,0.4-0.1,0.6-0.2l0,0l0.6-0.1c0,0,0,0,0,0l0.2,0l0,0c1.8-0.4,5.8-0.7,7.5,3.7C76.8-45.9,76.3-41.8,74.4-38.7z
					 M64.8-35.3c0.7,0.3,1.5,0.5,2.4,0.4c2.7-0.2,5-1.7,6.6-4.1c1.8-2.9,2.3-6.8,1.1-9.8c-1.4-3.5-4.3-3.7-6.3-3.3L67.9-52l-0.7,0.2
					c-0.2,0.1-0.3,0.1-0.3,0.1l-0.2,0.1l-0.2-0.1c0,0-1-0.7-2.3-1.2c-0.8-0.3-1.8-0.5-2.8-0.3c-1.3,0.2-2.5,1-3.4,2.3
					c-1.9,2.7-2.3,6.5-1.2,9.8c0.9,2.7,2.8,4.7,5.3,5.5c0,0,0,0,0.1,0c0.4,0.1,0.8,0.2,1.2,0.3C63.9-35.2,64.8-35.3,64.8-35.3z"/>
				<path class="st5" d="M59.8-49.3c-0.1,0-0.1,0-0.2-0.1c-0.3-0.2-0.4-0.6-0.2-1c0.3-0.5,0.7-0.9,1.1-1.3c0.3-0.3,0.7-0.2,1,0
					c0.3,0.3,0.2,0.7,0,1c-0.3,0.3-0.6,0.6-0.9,1C60.4-49.3,60.1-49.2,59.8-49.3z"/>
				<path class="st5" d="M57.8-43.6c-0.3-0.1-0.5-0.4-0.5-0.7c0.1-1.4,0.5-2.7,1-3.9c0.2-0.3,0.6-0.5,0.9-0.3
					c0.3,0.2,0.5,0.6,0.3,0.9c-0.5,1.1-0.8,2.2-0.9,3.5c0,0.4-0.4,0.7-0.7,0.6C57.9-43.6,57.9-43.6,57.8-43.6z"/>
				<path class="st2" d="M66.3-51.9c0-0.1-0.5-2.2,1.4-4l0.5,0.5c-1.6,1.5-1.2,3.2-1.2,3.3L66.3-51.9z"/>
				<path class="st2" d="M64.8-54.1c-0.1,0-0.1,0-0.2-0.1c-1.2-0.5-2.1-1.9-2.5-4.2l0-0.2l0.2-0.1c0,0,0.8-0.7,1.9-0.4
					c1.3,0.4,2.3,1.8,3.1,4.3l0.1,0.3l-0.2,0.1C67-54.3,66-53.7,64.8-54.1z M62.7-58.3c0.4,1.9,1.2,3.1,2.1,3.5
					c0.7,0.3,1.3,0.1,1.6,0c-0.9-2.6-1.9-3.4-2.6-3.6C63.4-58.6,63-58.4,62.7-58.3z"/>
			</g>
			<g>
				<g>
					<path class="st2" d="M41.8-49.2c-1.5-0.4-2.9-1.2-3.9-2.4c-1.4-1.6-2.2-3.7-2-5.9c0-0.6,0.1-1.2,0.3-1.8c0-0.2,0.2-0.3,0.4-0.2
						l15.1,0.9c0.2,0,0.3,0.1,0.3,0.3c0.1,0.6,0.1,1.2,0.1,1.8c-0.3,4.5-4.1,7.9-8.6,7.6C42.9-49,42.4-49.1,41.8-49.2z M36.8-58.9
						c-0.1,0.5-0.2,0.9-0.2,1.4c-0.1,2,0.5,3.9,1.9,5.4c1.3,1.5,3.1,2.4,5.1,2.5c4.1,0.2,7.6-2.9,7.8-7c0-0.5,0-1-0.1-1.4L36.8-58.9
						z"/>
					<path class="st2" d="M41.4-47.6c-1.8-0.5-3.5-1.5-4.7-2.9c-1.7-2-2.6-4.5-2.5-7.1c0.2-3.9,2.9-7.4,6.6-8.7l0.6-10.9l-0.3,0
						c-0.3,0-0.6-0.2-0.8-0.4c-0.2-0.2-0.3-0.5-0.3-0.8c0-0.6,0.6-1.1,1.2-1.1l8,0.5c0.6,0,1.1,0.6,1.1,1.2c0,0.3-0.2,0.6-0.4,0.8
						c-0.2,0.2-0.5,0.3-0.8,0.3l-0.3,0l-0.6,10.9c3.5,1.7,5.7,5.5,5.5,9.4c-0.3,5.4-5,9.5-10.3,9.2C42.7-47.3,42-47.4,41.4-47.6z
						 M41.9-77.8c0.2,0,0.3,0.2,0.3,0.4L41.4-66c0,0.1-0.1,0.3-0.2,0.3c-3.6,1.1-6.1,4.4-6.3,8.1c-0.3,4.4,2.6,8.2,6.7,9.3
						c0.6,0.2,1.2,0.3,1.8,0.3c2.4,0.1,4.8-0.7,6.6-2.3c1.8-1.6,2.9-3.8,3-6.3c0.2-3.7-1.9-7.3-5.3-8.8c-0.1-0.1-0.2-0.2-0.2-0.3
						l0.7-11.5c0-0.2,0.2-0.3,0.4-0.3l0.6,0c0.1,0,0.2,0,0.3-0.1c0.1-0.1,0.1-0.2,0.1-0.3c0-0.2-0.2-0.4-0.4-0.5l-8-0.5
						c-0.2,0-0.4,0.2-0.5,0.4c0,0.1,0,0.2,0.1,0.3c0.1,0.1,0.2,0.1,0.3,0.1L41.9-77.8C41.8-77.8,41.8-77.8,41.9-77.8z"/>
				</g>
				<g>
					<path class="st2" d="M48-53.2c-0.6-0.2-1.1-0.8-1-1.5c0-0.4,0.2-0.7,0.5-1c0.3-0.3,0.7-0.4,1-0.4c0.8,0,1.4,0.7,1.3,1.5v0
						c0,0.4-0.2,0.7-0.5,1c-0.3,0.3-0.7,0.4-1,0.4C48.2-53.2,48.1-53.2,48-53.2z M48.6-55.3c0,0-0.1,0-0.1,0c-0.4,0-0.8,0.3-0.8,0.7
						c0,0.4,0.3,0.8,0.7,0.8c0.4,0,0.8-0.3,0.8-0.7C49.1-54.9,48.9-55.2,48.6-55.3z"/>
					<path class="st2" d="M46.1-51.3c-0.5-0.1-0.8-0.5-0.7-1c0-0.6,0.5-1,1.1-0.9c0.6,0,1,0.5,0.9,1.1c0,0.6-0.5,1-1.1,0.9
						C46.2-51.3,46.1-51.3,46.1-51.3z M46.4-52.6C46.4-52.6,46.4-52.6,46.4-52.6c-0.2,0-0.2,0-0.3,0.1C46-52.5,46-52.4,46-52.3
						c0,0.1,0,0.2,0.1,0.2c0.1,0.1,0.1,0.1,0.2,0.1c0.1,0,0.2,0,0.2-0.1c0.1-0.1,0.1-0.1,0.1-0.2c0-0.1,0-0.2-0.1-0.2
						C46.5-52.6,46.5-52.6,46.4-52.6z"/>
					<path class="st2" d="M45.3-53.6c-0.5-0.1-0.8-0.5-0.7-1c0-0.3,0.1-0.5,0.3-0.7c0.2-0.2,0.5-0.3,0.7-0.3c0.3,0,0.5,0.1,0.7,0.3
						c0.2,0.2,0.3,0.5,0.3,0.7l0,0c0,0.3-0.1,0.5-0.3,0.7c-0.2,0.2-0.5,0.3-0.7,0.3C45.4-53.6,45.3-53.6,45.3-53.6z M45.6-54.9
						C45.6-54.9,45.6-54.9,45.6-54.9c-0.2,0-0.2,0-0.3,0.1c-0.1,0.1-0.1,0.1-0.1,0.2c0,0.2,0.1,0.3,0.3,0.3c0.1,0,0.2,0,0.2-0.1
						c0.1-0.1,0.1-0.1,0.1-0.2c0,0,0,0,0,0c0-0.1,0-0.2-0.1-0.2C45.7-54.9,45.7-54.9,45.6-54.9z"/>
				</g>
			</g>
		</g>
		<g>
			<g>
				<path class="st1" d="M162.7-84.4l0.4-8.5c0-0.2,0.2-0.4,0.4-0.4l51.8,2.2c0.2,0,0.4,0.2,0.4,0.4l-0.4,8.5c0,0.2-0.2,0.4-0.4,0.4
					L163.1-84C162.9-84,162.7-84.2,162.7-84.4z M163.8-92.5l-0.3,7.8l51.1,2.2l0.3-7.8L163.8-92.5z"/>
				<path class="st1" d="M162.8-86.3l0.3-6.6c0-0.2,0.2-0.4,0.4-0.4l51.8,2.2c0.2,0,0.4,0.2,0.4,0.4l-0.3,6.6c0,0.2-0.2,0.4-0.4,0.4
					l-51.8-2.2C162.9-85.9,162.8-86.1,162.8-86.3z M163.8-92.5l-0.3,5.9l51.1,2.2l0.3-5.9L163.8-92.5z"/>
				<path class="st1" d="M198.1-88.8l0.1-1.5c0-0.2,0.2-0.4,0.4-0.4c0.2,0,0.4,0.2,0.4,0.4l-0.1,1.5c0,0.2-0.2,0.4-0.4,0.4
					C198.3-88.4,198.1-88.6,198.1-88.8z"/>
				<path class="st1" d="M196.7-88.8l0.1-1.5c0-0.2,0.2-0.4,0.4-0.4c0.2,0,0.4,0.2,0.4,0.4l-0.1,1.5c0,0.2-0.2,0.4-0.4,0.4
					C196.9-88.4,196.7-88.6,196.7-88.8z"/>
				<path class="st1" d="M196.7-88.8l0.1-1.5c0-0.2,0.2-0.4,0.4-0.4c0.2,0,0.4,0.2,0.4,0.4l-0.1,1.5c0,0.2-0.2,0.4-0.4,0.4
					C196.9-88.4,196.7-88.6,196.7-88.8z"/>
				<path class="st1" d="M195.4-88.9l0.1-1.5c0-0.2,0.2-0.4,0.4-0.4c0.2,0,0.4,0.2,0.4,0.4l-0.1,1.5c0,0.2-0.2,0.4-0.4,0.4
					C195.5-88.5,195.4-88.7,195.4-88.9z"/>
				<path class="st1" d="M193.9-87l0.2-3.5c0-0.2,0.2-0.4,0.4-0.4c0.2,0,0.4,0.2,0.4,0.4l-0.2,3.5c0,0.2-0.2,0.4-0.4,0.4
					C194.1-86.6,193.9-86.8,193.9-87z"/>
				<path class="st1" d="M192.6-89l0.1-1.5c0-0.2,0.2-0.4,0.4-0.4c0.2,0,0.4,0.2,0.4,0.4l-0.1,1.5c0,0.2-0.2,0.4-0.4,0.4
					C192.8-88.6,192.6-88.8,192.6-89z"/>
				<path class="st1" d="M191.3-89.1l0.1-1.5c0-0.2,0.2-0.4,0.4-0.4c0.2,0,0.4,0.2,0.4,0.4L192-89c0,0.2-0.2,0.4-0.4,0.4
					C191.4-88.7,191.2-88.9,191.3-89.1z"/>
				<path class="st1" d="M189.9-89.1l0.1-1.5c0-0.2,0.2-0.4,0.4-0.4c0.2,0,0.4,0.2,0.4,0.4l-0.1,1.5c0,0.2-0.2,0.4-0.4,0.4
					C190-88.7,189.9-88.9,189.9-89.1z"/>
				<path class="st1" d="M189.9-89.1l0.1-1.5c0-0.2,0.2-0.4,0.4-0.4c0.2,0,0.4,0.2,0.4,0.4l-0.1,1.5c0,0.2-0.2,0.4-0.4,0.4
					C190-88.7,189.9-88.9,189.9-89.1z"/>
				<path class="st1" d="M188.5-89.2l0.1-1.5c0-0.2,0.2-0.4,0.4-0.4c0.2,0,0.4,0.2,0.4,0.4l-0.1,1.5c0,0.2-0.2,0.4-0.4,0.4
					C188.7-88.8,188.5-89,188.5-89.2z"/>
				<path class="st1" d="M187.1-87.3l0.2-3.5c0-0.2,0.2-0.4,0.4-0.4c0.2,0,0.4,0.2,0.4,0.4l-0.2,3.5c0,0.2-0.2,0.4-0.4,0.4
					C187.2-86.9,187-87.1,187.1-87.3z"/>
				<path class="st1" d="M185.8-89.3l0.1-1.5c0-0.2,0.2-0.4,0.4-0.4c0.2,0,0.4,0.2,0.4,0.4l-0.1,1.5c0,0.2-0.2,0.4-0.4,0.4
					C185.9-88.9,185.8-89.1,185.8-89.3z"/>
				<path class="st1" d="M184.4-89.4l0.1-1.5c0-0.2,0.2-0.4,0.4-0.4c0.2,0,0.4,0.2,0.4,0.4l-0.1,1.5c0,0.2-0.2,0.4-0.4,0.4
					C184.5-89,184.4-89.2,184.4-89.4z"/>
				<path class="st1" d="M183-89.4l0.1-1.5c0-0.2,0.2-0.4,0.4-0.4c0.2,0,0.4,0.2,0.4,0.4l-0.1,1.5c0,0.2-0.2,0.4-0.4,0.4
					C183.2-89,183-89.2,183-89.4z"/>
				<path class="st1" d="M183-89.4l0.1-1.5c0-0.2,0.2-0.4,0.4-0.4c0.2,0,0.4,0.2,0.4,0.4l-0.1,1.5c0,0.2-0.2,0.4-0.4,0.4
					C183.2-89,183-89.2,183-89.4z"/>
				<path class="st1" d="M181.7-89.5l0.1-1.5c0-0.2,0.2-0.4,0.4-0.4c0.2,0,0.4,0.2,0.4,0.4l-0.1,1.5c0,0.2-0.2,0.4-0.4,0.4
					C181.8-89.1,181.6-89.3,181.7-89.5z"/>
				<path class="st1" d="M180.2-87.6l0.2-3.5c0-0.2,0.2-0.4,0.4-0.4c0.2,0,0.4,0.2,0.4,0.4l-0.2,3.5c0,0.2-0.2,0.4-0.4,0.4
					C180.3-87.2,180.2-87.3,180.2-87.6z"/>
				<path class="st1" d="M178.9-89.6l0.1-1.5c0-0.2,0.2-0.4,0.4-0.4c0.2,0,0.4,0.2,0.4,0.4l-0.1,1.5c0,0.2-0.2,0.4-0.4,0.4
					C179.1-89.2,178.9-89.4,178.9-89.6z"/>
				<path class="st1" d="M177.5-89.7l0.1-1.5c0-0.2,0.2-0.4,0.4-0.4c0.2,0,0.4,0.2,0.4,0.4l-0.1,1.5c0,0.2-0.2,0.4-0.4,0.4
					C177.7-89.3,177.5-89.5,177.5-89.7z"/>
				<path class="st1" d="M176.2-89.7l0.1-1.5c0-0.2,0.2-0.4,0.4-0.4c0.2,0,0.4,0.2,0.4,0.4l-0.1,1.5c0,0.2-0.2,0.4-0.4,0.4
					C176.3-89.3,176.2-89.5,176.2-89.7z"/>
				<path class="st1" d="M176.2-89.7l0.1-1.5c0-0.2,0.2-0.4,0.4-0.4c0.2,0,0.4,0.2,0.4,0.4l-0.1,1.5c0,0.2-0.2,0.4-0.4,0.4
					C176.3-89.3,176.2-89.5,176.2-89.7z"/>
				<path class="st1" d="M174.8-89.8l0.1-1.5c0-0.2,0.2-0.4,0.4-0.4c0.2,0,0.4,0.2,0.4,0.4l-0.1,1.5c0,0.2-0.2,0.4-0.4,0.4
					C174.9-89.4,174.8-89.6,174.8-89.8z"/>
				<path class="st1" d="M173.3-87.9l0.2-3.5c0-0.2,0.2-0.4,0.4-0.4c0.2,0,0.4,0.2,0.4,0.4l-0.2,3.5c0,0.2-0.2,0.4-0.4,0.4
					S173.3-87.6,173.3-87.9z"/>
				<path class="st1" d="M172.1-89.9l0.1-1.5c0-0.2,0.2-0.4,0.4-0.4c0.2,0,0.4,0.2,0.4,0.4l-0.1,1.5c0,0.2-0.2,0.4-0.4,0.4
					C172.3-89.5,172.1-89.7,172.1-89.9z"/>
				<path class="st1" d="M170.7-90l0.1-1.5c0-0.2,0.2-0.4,0.4-0.4c0.2,0,0.4,0.2,0.4,0.4l-0.1,1.5c0,0.2-0.2,0.4-0.4,0.4
					C170.9-89.6,170.7-89.8,170.7-90z"/>
				<path class="st1" d="M169.4-90l0.1-1.5c0-0.2,0.2-0.4,0.4-0.4c0.2,0,0.4,0.2,0.4,0.4l-0.1,1.5c0,0.2-0.2,0.4-0.4,0.4
					C169.5-89.6,169.3-89.8,169.4-90z"/>
				<path class="st1" d="M169.4-90l0.1-1.5c0-0.2,0.2-0.4,0.4-0.4c0.2,0,0.4,0.2,0.4,0.4l-0.1,1.5c0,0.2-0.2,0.4-0.4,0.4
					C169.5-89.6,169.3-89.8,169.4-90z"/>
				<path class="st1" d="M168-90.1l0.1-1.5c0-0.2,0.2-0.4,0.4-0.4c0.2,0,0.4,0.2,0.4,0.4l-0.1,1.5c0,0.2-0.2,0.4-0.4,0.4
					C168.1-89.7,168-89.9,168-90.1z"/>
				<path class="st1" d="M166.5-88.1l0.2-3.5c0-0.2,0.2-0.4,0.4-0.4c0.2,0,0.4,0.2,0.4,0.4l-0.2,3.5c0,0.2-0.2,0.4-0.4,0.4
					C166.7-87.8,166.5-87.9,166.5-88.1z"/>
				<path class="st1" d="M164-88.6c0-0.5,0.5-0.9,1-0.9c0.5,0,0.9,0.5,0.9,1c0,0.5-0.5,0.9-1,0.9C164.3-87.6,163.9-88.1,164-88.6z
					 M165.1-88.5c0-0.1-0.1-0.2-0.2-0.2c-0.1,0-0.2,0.1-0.2,0.2c0,0.1,0.1,0.2,0.2,0.2C165-88.4,165.1-88.4,165.1-88.5z"/>
			</g>
			<g>
				
					<ellipse transform="matrix(0.8897 -0.4565 0.4565 0.8897 70.0014 63.5818)" class="st3" cx="166.6" cy="-113.1" rx="11.4" ry="11.4"/>
				<path class="st3" d="M178.8-117c2.2,6.7-1.5,13.9-8.2,16.1c-6.7,2.2-13.9-1.5-16.1-8.2c-2.2-6.7,1.5-13.9,8.2-16.1
					C169.4-127.4,176.6-123.7,178.8-117z"/>
				<path class="st4" d="M167.6-113.4c0.2,0.6-0.1,1.2-0.7,1.4c-0.6,0.2-1.2-0.1-1.4-0.7c-0.2-0.6,0.1-1.2,0.7-1.4
					C166.8-114.3,167.4-114,167.6-113.4z"/>
				<path class="st4" d="M167.4-110.5c-0.1,0-0.2,0-0.3-0.1l-2.8-8.7c0-0.1,0-0.2,0.1-0.3c0.1,0,0.2,0,0.3,0.1l2.8,8.7
					C167.6-110.7,167.5-110.6,167.4-110.5z"/>
				<path class="st4" d="M170.4-114.1l-6.1,2c-0.1,0-0.2,0-0.3-0.1c0-0.1,0-0.2,0.1-0.3l6.1-2c0.1,0,0.2,0,0.3,0.1
					C170.6-114.3,170.5-114.1,170.4-114.1z"/>
				<path class="st4" d="M164.4-119.8c-0.2,0.1-0.5-0.1-0.5-0.3l-0.6-1.8c-0.1-0.2,0.1-0.5,0.3-0.5c0.2-0.1,0.5,0.1,0.5,0.3l0.6,1.8
					C164.8-120.1,164.7-119.9,164.4-119.8z"/>
				<path class="st4" d="M169.6-103.8c-0.2,0.1-0.5-0.1-0.5-0.3l-0.6-1.8c-0.1-0.2,0.1-0.5,0.3-0.5c0.2-0.1,0.5,0.1,0.5,0.3l0.6,1.8
					C169.9-104.1,169.8-103.9,169.6-103.8z"/>
				<path class="st4" d="M175.6-115.6l-1.8,0.6c-0.2,0.1-0.5-0.1-0.5-0.3c-0.1-0.2,0.1-0.5,0.3-0.5l1.8-0.6c0.2-0.1,0.5,0.1,0.5,0.3
					C176-115.9,175.9-115.6,175.6-115.6z"/>
				<path class="st4" d="M159.6-110.4l-1.8,0.6c-0.2,0.1-0.5-0.1-0.5-0.3c-0.1-0.2,0.1-0.5,0.3-0.5l1.8-0.6c0.2-0.1,0.5,0.1,0.5,0.3
					C160-110.7,159.8-110.5,159.6-110.4z"/>
				<path class="st4" d="M160.1-116.1c-0.1,0-0.2,0-0.3,0l-1.7-0.9c-0.2-0.1-0.3-0.4-0.2-0.6c0.1-0.2,0.4-0.3,0.6-0.2l1.7,0.9
					c0.2,0.1,0.3,0.4,0.2,0.6C160.3-116.2,160.2-116.1,160.1-116.1z"/>
				<path class="st4" d="M175.1-108.4c-0.1,0-0.2,0-0.3,0l-1.7-0.9c-0.2-0.1-0.3-0.4-0.2-0.6c0.1-0.2,0.4-0.3,0.6-0.2l1.7,0.9
					c0.2,0.1,0.3,0.4,0.2,0.6C175.3-108.5,175.2-108.4,175.1-108.4z"/>
				<path class="st4" d="M170.2-119.3c-0.1,0-0.2,0-0.3,0c-0.2-0.1-0.3-0.4-0.2-0.6l0.9-1.7c0.1-0.2,0.4-0.3,0.6-0.2
					c0.2,0.1,0.3,0.4,0.2,0.6l-0.9,1.7C170.3-119.5,170.3-119.4,170.2-119.3z"/>
				<path class="st4" d="M162.5-104.4c-0.1,0-0.2,0-0.3,0c-0.2-0.1-0.3-0.4-0.2-0.6l0.9-1.7c0.1-0.2,0.4-0.3,0.6-0.2
					c0.2,0.1,0.3,0.4,0.2,0.6l-0.9,1.7C162.7-104.5,162.6-104.4,162.5-104.4z"/>
			</g>
			<g>
				<g>
					<path class="st5" d="M203.1-102c1.1-2.1-2.5-6.1-8.1-9c-5.7-2.9-11-3.6-12.1-1.4c-1.1,2.1,2.5,6.1,8.1,9
						C196.7-100.6,202-99.9,203.1-102z M183.6-112.2c0.8-1.5,5.5-1.2,11.1,1.7c5.7,2.9,8.6,6.6,7.8,8.1c-0.8,1.5-5.5,1.2-11.1-1.7
						C185.7-107.1,182.8-110.7,183.6-112.2z"/>
					<path class="st5" d="M203.1-102c1.1-2.1-2.5-6.1-8.1-9c-5.7-2.9-11-3.6-12.1-1.4c-1.1,2.1,2.5,6.1,8.1,9
						C196.7-100.6,202-99.9,203.1-102z M183.6-112.2c0.8-1.5,5.5-1.2,11.1,1.7c5.7,2.9,8.6,6.6,7.8,8.1c-0.8,1.5-5.5,1.2-11.1-1.7
						C185.7-107.1,182.8-110.7,183.6-112.2z"/>
				</g>
				<g>
					<path class="st5" d="M197.7-97.6c1.1-2.1,0.8-6.4-0.6-11c-1.9-6.1-5.2-10.3-7.5-9.5c-0.5,0.2-0.9,0.6-1.3,1.2
						c-1.1,2.1-0.8,6.4,0.6,11c1.9,6.1,5.2,10.3,7.5,9.6C197-96.6,197.4-97,197.7-97.6z M189-116.6c0.2-0.4,0.5-0.7,0.9-0.8
						c1.6-0.5,4.7,3,6.6,9.1c1.4,4.4,1.6,8.5,0.7,10.4c-0.2,0.4-0.5,0.7-0.9,0.8c-1.6,0.5-4.7-3-6.6-9.1
						C188.3-110.6,188-114.7,189-116.6z"/>
					<path class="st5" d="M197.7-97.6c1.1-2.1,0.8-6.4-0.6-11c-1.9-6.1-5.2-10.3-7.5-9.5c-0.5,0.2-0.9,0.6-1.3,1.2
						c-1.1,2.1-0.8,6.4,0.6,11c1.9,6.1,5.2,10.3,7.5,9.6C197-96.6,197.4-97,197.7-97.6z M189-116.6c0.2-0.4,0.5-0.7,0.9-0.8
						c1.6-0.5,4.7,3,6.6,9.1c1.4,4.4,1.6,8.5,0.7,10.4c-0.2,0.4-0.5,0.7-0.9,0.8c-1.6,0.5-4.7-3-6.6-9.1
						C188.3-110.6,188-114.7,189-116.6z"/>
				</g>
				<g>
					<path class="st5" d="M203.6-109c0.3-0.6,0.4-1.2,0.2-1.7c-0.7-2.3-6-2.6-12.1-0.6c-4.6,1.5-8.2,3.7-9.3,5.8
						c-0.3,0.6-0.4,1.2-0.2,1.7c0.7,2.3,6.1,2.6,12.1,0.6C198.9-104.7,202.6-106.9,203.6-109z M183-105.2c1-1.9,4.6-4.1,8.9-5.4
						c6.1-1.9,10.7-1.5,11.3,0.2c0.1,0.3,0,0.7-0.2,1.2c-1,1.9-4.6,4.1-8.9,5.5c-6.1,1.9-10.7,1.5-11.3-0.2
						C182.8-104.4,182.8-104.8,183-105.2z"/>
					<path class="st5" d="M203.6-109c0.3-0.6,0.4-1.2,0.2-1.7c-0.7-2.3-6-2.6-12.1-0.6c-4.6,1.5-8.2,3.7-9.3,5.8
						c-0.3,0.6-0.4,1.2-0.2,1.7c0.7,2.3,6.1,2.6,12.1,0.6C198.9-104.7,202.6-106.9,203.6-109z M183-105.2c1-1.9,4.6-4.1,8.9-5.4
						c6.1-1.9,10.7-1.5,11.3,0.2c0.1,0.3,0,0.7-0.2,1.2c-1,1.9-4.6,4.1-8.9,5.5c-6.1,1.9-10.7,1.5-11.3-0.2
						C182.8-104.4,182.8-104.8,183-105.2z"/>
				</g>
				<g>
					<path class="st5" d="M187.7-114.9c0.6,0.3,1.2,0.1,1.5-0.5c0.3-0.6,0.1-1.2-0.5-1.5c-0.6-0.3-1.2-0.1-1.5,0.5
						C186.9-115.9,187.1-115.2,187.7-114.9z"/>
					<path class="st5" d="M187.7-114.9c0.6,0.3,1.2,0.1,1.5-0.5c0.3-0.6,0.1-1.2-0.5-1.5c-0.6-0.3-1.2-0.1-1.5,0.5
						C186.9-115.9,187.1-115.2,187.7-114.9z"/>
				</g>
				<g>
					<path class="st5" d="M186.7-101.3c0.6,0.3,1.2,0.1,1.5-0.5c0.3-0.6,0.1-1.2-0.5-1.5c-0.6-0.3-1.2-0.1-1.5,0.5
						C185.9-102.2,186.2-101.6,186.7-101.3z"/>
					<path class="st5" d="M186.7-101.3c0.6,0.3,1.2,0.1,1.5-0.5c0.3-0.6,0.1-1.2-0.5-1.5c-0.6-0.3-1.2-0.1-1.5,0.5
						C185.9-102.2,186.2-101.6,186.7-101.3z"/>
				</g>
				<g>
					<path class="st5" d="M191.9-105c1.2,0.6,2.8,0.2,3.4-1.1c0.6-1.2,0.2-2.8-1.1-3.4c-1.2-0.6-2.8-0.2-3.4,1.1
						C190.2-107.2,190.6-105.7,191.9-105z"/>
					<path class="st5" d="M191.9-105c1.2,0.6,2.8,0.2,3.4-1.1c0.6-1.2,0.2-2.8-1.1-3.4c-1.2-0.6-2.8-0.2-3.4,1.1
						C190.2-107.2,190.6-105.7,191.9-105z"/>
				</g>
			</g>
			<g>
				<path class="st2" d="M180-126.3C180-126.3,180-126.3,180-126.3l-1.9-0.1c-0.1,0-0.2-0.1-0.2-0.2c0-0.1,0-0.2,0.1-0.2l17.1-8.9
					c0.4-0.2,0.8-0.6,0.9-1.1c0.1-0.5,0.1-1-0.1-1.4L185.2-159c-0.5-0.9-1.5-1.2-2.4-0.9c-0.1,0-0.2,0-0.2,0c-0.1,0-0.1-0.1-0.1-0.2
					c0-0.1,0.1-0.1,0.1-0.2l0.4-0.2c0,0,0,0,0,0c1.2-0.6,2.6-0.2,3.2,1l11.2,21.4c0.3,0.6,0.4,1.2,0.2,1.8c-0.2,0.6-0.6,1.1-1.2,1.4
					L180-126.3C180.1-126.3,180.1-126.3,180-126.3z M179-126.8l0.9,0.1l16.3-8.5c0.5-0.2,0.8-0.6,1-1.1c0.2-0.5,0.1-1-0.1-1.5
					l-11.2-21.4c-0.3-0.6-1-1-1.6-1c0.5,0.2,1,0.6,1.3,1.1l10.8,20.7c0.3,0.5,0.3,1.2,0.2,1.8c-0.2,0.6-0.6,1.1-1.1,1.4L179-126.8z"
					/>
				<path class="st2" d="M178.3-126.4C178.2-126.4,178.2-126.4,178.3-126.4l-1.3-0.1c-0.1,0-0.2-0.1-0.2-0.2c0-0.1,0-0.2,0.1-0.2
					l16.4-8.5c0.9-0.5,1.3-1.7,0.8-2.6l-11.2-21.4c-0.1-0.2-0.2-0.3-0.3-0.4c-0.1-0.1-0.1-0.1-0.1-0.2c0-0.1,0.1-0.1,0.1-0.2
					c1.1-0.5,2.4,0,2.9,1.1l10.8,20.7v0c0.3,0.5,0.3,1.2,0.2,1.8c-0.2,0.6-0.6,1.1-1.1,1.4L178.3-126.4
					C178.3-126.4,178.3-126.4,178.3-126.4z M177.8-126.9l0.4,0l17.1-8.9c0.4-0.2,0.8-0.6,0.9-1.1c0.1-0.5,0.1-1-0.1-1.4c0,0,0,0,0,0
					L185.2-159c-0.4-0.8-1.3-1.1-2.1-1c0.1,0.1,0.1,0.2,0.2,0.3l11.2,21.4c0.6,1.2,0.2,2.6-1,3.2L177.8-126.9z"/>
				<path class="st2" d="M177-126.5c0,0-0.1,0-0.1,0c-0.1,0-0.1-0.1-0.1-0.1l-13.2-25.3c-0.1-0.1,0-0.2,0.1-0.3l16.4-8.5
					c0.9-0.5,2.1-0.3,2.8,0.5c0,0,0,0,0,0c0.2,0.2,0.3,0.3,0.4,0.5l11.2,21.4c0.6,1.2,0.2,2.6-1,3.2L177-126.5
					C177.1-126.5,177.1-126.5,177-126.5z M164.1-151.9l13,24.9l16.2-8.4c0.9-0.5,1.3-1.7,0.8-2.6l-11.2-21.4
					c-0.1-0.1-0.1-0.2-0.2-0.3c-0.1,0-0.3-0.2-0.3-0.3c-0.6-0.5-1.4-0.6-2.1-0.2L164.1-151.9z"/>
				<path class="st2" d="M177-126.5c0,0-0.1,0-0.1,0c-0.1,0-0.1-0.1-0.1-0.1l-13.2-25.3c-0.1-0.1,0-0.2,0.1-0.3l2.3-1.2
					c0.1,0,0.1,0,0.2,0c0.1,0,0.1,0.1,0.1,0.1l13.2,25.3c0.1,0.1,0,0.2-0.1,0.3L177-126.5C177.1-126.5,177.1-126.5,177-126.5z
					 M164.1-151.9l13,24.9l1.9-1l-13-24.9L164.1-151.9z"/>
			</g>
		</g>
		<g>
			<g>
				<path class="st1" d="M81.4-37.2l0.4-8.5c0-0.2,0.2-0.4,0.4-0.4l51.8,2.2c0.2,0,0.4,0.2,0.4,0.4L134-35c0,0.2-0.2,0.4-0.4,0.4
					l-51.8-2.2C81.6-36.9,81.4-37,81.4-37.2z M82.5-45.4l-0.3,7.8l51.1,2.2l0.3-7.8L82.5-45.4z"/>
				<path class="st1" d="M81.5-39.2l0.3-6.6c0-0.2,0.2-0.4,0.4-0.4l51.8,2.2c0.2,0,0.4,0.2,0.4,0.4l-0.3,6.6c0,0.2-0.2,0.4-0.4,0.4
					l-51.8-2.2C81.7-38.8,81.5-38.9,81.5-39.2z M82.5-45.4l-0.3,5.9l51.1,2.2l0.3-5.9L82.5-45.4z"/>
				<path class="st1" d="M131.9-41l0.1-1.5c0-0.2,0.2-0.4,0.4-0.4c0.2,0,0.4,0.2,0.4,0.4l-0.1,1.5c0,0.2-0.2,0.4-0.4,0.4
					C132-40.6,131.8-40.8,131.9-41z"/>
				<path class="st1" d="M130.5-41.1l0.1-1.5c0-0.2,0.2-0.4,0.4-0.4c0.2,0,0.4,0.2,0.4,0.4l-0.1,1.5c0,0.2-0.2,0.4-0.4,0.4
					C130.6-40.7,130.5-40.9,130.5-41.1z"/>
				<path class="st1" d="M129.1-41.1l0.1-1.5c0-0.2,0.2-0.4,0.4-0.4c0.2,0,0.4,0.2,0.4,0.4l-0.1,1.5c0,0.2-0.2,0.4-0.4,0.4
					C129.3-40.7,129.1-40.9,129.1-41.1z"/>
				<path class="st1" d="M129.1-41.1l0.1-1.5c0-0.2,0.2-0.4,0.4-0.4c0.2,0,0.4,0.2,0.4,0.4l-0.1,1.5c0,0.2-0.2,0.4-0.4,0.4
					C129.3-40.7,129.1-40.9,129.1-41.1z"/>
				<path class="st1" d="M127.7-41.2l0.1-1.5c0-0.2,0.2-0.4,0.4-0.4c0.2,0,0.4,0.2,0.4,0.4l-0.1,1.5c0,0.2-0.2,0.4-0.4,0.4
					C127.9-40.8,127.7-41,127.7-41.2z"/>
				<path class="st1" d="M126.3-39.3l0.2-3.5c0-0.2,0.2-0.4,0.4-0.4c0.2,0,0.4,0.2,0.4,0.4l-0.2,3.5c0,0.2-0.2,0.4-0.4,0.4
					C126.4-38.9,126.3-39,126.3-39.3z"/>
				<path class="st1" d="M125-41.3l0.1-1.5c0-0.2,0.2-0.4,0.4-0.4c0.2,0,0.4,0.2,0.4,0.4l-0.1,1.5c0,0.2-0.2,0.4-0.4,0.4
					C125.2-40.9,125-41.1,125-41.3z"/>
				<path class="st1" d="M123.6-41.4l0.1-1.5c0-0.2,0.2-0.4,0.4-0.4c0.2,0,0.4,0.2,0.4,0.4l-0.1,1.5c0,0.2-0.2,0.4-0.4,0.4
					C123.8-41,123.6-41.2,123.6-41.4z"/>
				<path class="st1" d="M122.3-41.4l0.1-1.5c0-0.2,0.2-0.4,0.4-0.4c0.2,0,0.4,0.2,0.4,0.4l-0.1,1.5c0,0.2-0.2,0.4-0.4,0.4
					C122.4-41,122.2-41.2,122.3-41.4z"/>
				<path class="st1" d="M122.3-41.4l0.1-1.5c0-0.2,0.2-0.4,0.4-0.4c0.2,0,0.4,0.2,0.4,0.4l-0.1,1.5c0,0.2-0.2,0.4-0.4,0.4
					C122.4-41,122.2-41.2,122.3-41.4z"/>
				<path class="st1" d="M120.9-41.5L121-43c0-0.2,0.2-0.4,0.4-0.4c0.2,0,0.4,0.2,0.4,0.4l-0.1,1.5c0,0.2-0.2,0.4-0.4,0.4
					C121-41.1,120.9-41.3,120.9-41.5z"/>
				<path class="st1" d="M119.4-39.5l0.2-3.5c0-0.2,0.2-0.4,0.4-0.4c0.2,0,0.4,0.2,0.4,0.4l-0.2,3.5c0,0.2-0.2,0.4-0.4,0.4
					C119.6-39.2,119.4-39.3,119.4-39.5z"/>
				<path class="st1" d="M118.2-41.6l0.1-1.5c0-0.2,0.2-0.4,0.4-0.4c0.2,0,0.4,0.2,0.4,0.4l-0.1,1.5c0,0.2-0.2,0.4-0.4,0.4
					C118.3-41.2,118.2-41.4,118.2-41.6z"/>
				<path class="st1" d="M116.8-41.7l0.1-1.5c0-0.2,0.2-0.4,0.4-0.4c0.2,0,0.4,0.2,0.4,0.4l-0.1,1.5c0,0.2-0.2,0.4-0.4,0.4
					C117-41.3,116.8-41.4,116.8-41.7z"/>
				<path class="st1" d="M115.4-41.7l0.1-1.5c0-0.2,0.2-0.4,0.4-0.4c0.2,0,0.4,0.2,0.4,0.4l-0.1,1.5c0,0.2-0.2,0.4-0.4,0.4
					C115.6-41.3,115.4-41.5,115.4-41.7z"/>
				<path class="st1" d="M115.4-41.7l0.1-1.5c0-0.2,0.2-0.4,0.4-0.4c0.2,0,0.4,0.2,0.4,0.4l-0.1,1.5c0,0.2-0.2,0.4-0.4,0.4
					C115.6-41.3,115.4-41.5,115.4-41.7z"/>
				<path class="st1" d="M114.1-41.8l0.1-1.5c0-0.2,0.2-0.4,0.4-0.4c0.2,0,0.4,0.2,0.4,0.4l-0.1,1.5c0,0.2-0.2,0.4-0.4,0.4
					C114.2-41.4,114.1-41.6,114.1-41.8z"/>
				<path class="st1" d="M112.6-39.8l0.2-3.5c0-0.2,0.2-0.4,0.4-0.4c0.2,0,0.4,0.2,0.4,0.4l-0.2,3.5c0,0.2-0.2,0.4-0.4,0.4
					C112.8-39.5,112.6-39.6,112.6-39.8z"/>
				<path class="st1" d="M111.3-41.9l0.1-1.5c0-0.2,0.2-0.4,0.4-0.4c0.2,0,0.4,0.2,0.4,0.4l-0.1,1.5c0,0.2-0.2,0.4-0.4,0.4
					C111.5-41.5,111.3-41.7,111.3-41.9z"/>
				<path class="st1" d="M110-42l0.1-1.5c0-0.2,0.2-0.4,0.4-0.4c0.2,0,0.4,0.2,0.4,0.4l-0.1,1.5c0,0.2-0.2,0.4-0.4,0.4
					C110.1-41.6,110-41.7,110-42z"/>
				<path class="st1" d="M108.6-42l0.1-1.5c0-0.2,0.2-0.4,0.4-0.4c0.2,0,0.4,0.2,0.4,0.4l-0.1,1.5c0,0.2-0.2,0.4-0.4,0.4
					C108.7-41.6,108.6-41.8,108.6-42z"/>
				<path class="st1" d="M108.6-42l0.1-1.5c0-0.2,0.2-0.4,0.4-0.4c0.2,0,0.4,0.2,0.4,0.4l-0.1,1.5c0,0.2-0.2,0.4-0.4,0.4
					C108.7-41.6,108.6-41.8,108.6-42z"/>
				<path class="st1" d="M107.2-42.1l0.1-1.5c0-0.2,0.2-0.4,0.4-0.4c0.2,0,0.4,0.2,0.4,0.4L108-42c0,0.2-0.2,0.4-0.4,0.4
					C107.4-41.7,107.2-41.9,107.2-42.1z"/>
				<path class="st1" d="M105.8-40.1l0.2-3.5c0-0.2,0.2-0.4,0.4-0.4c0.2,0,0.4,0.2,0.4,0.4l-0.2,3.5c0,0.2-0.2,0.4-0.4,0.4
					C105.9-39.7,105.8-39.9,105.8-40.1z"/>
				<path class="st1" d="M104.5-42.2l0.1-1.5c0-0.2,0.2-0.4,0.4-0.4c0.2,0,0.4,0.2,0.4,0.4l-0.1,1.5c0,0.2-0.2,0.4-0.4,0.4
					C104.6-41.8,104.5-42,104.5-42.2z"/>
				<path class="st1" d="M103.1-42.3l0.1-1.5c0-0.2,0.2-0.4,0.4-0.4c0.2,0,0.4,0.2,0.4,0.4l-0.1,1.5c0,0.2-0.2,0.4-0.4,0.4
					C103.3-41.9,103.1-42,103.1-42.3z"/>
				<path class="st1" d="M101.7-42.3l0.1-1.5c0-0.2,0.2-0.4,0.4-0.4c0.2,0,0.4,0.2,0.4,0.4l-0.1,1.5c0,0.2-0.2,0.4-0.4,0.4
					C101.9-41.9,101.7-42.1,101.7-42.3z"/>
				<path class="st1" d="M101.7-42.3l0.1-1.5c0-0.2,0.2-0.4,0.4-0.4c0.2,0,0.4,0.2,0.4,0.4l-0.1,1.5c0,0.2-0.2,0.4-0.4,0.4
					C101.9-41.9,101.7-42.1,101.7-42.3z"/>
				<path class="st1" d="M100.4-42.4l0.1-1.5c0-0.2,0.2-0.4,0.4-0.4c0.2,0,0.4,0.2,0.4,0.4l-0.1,1.5c0,0.2-0.2,0.4-0.4,0.4
					C100.5-42,100.4-42.2,100.4-42.4z"/>
				<path class="st1" d="M98.9-40.4l0.2-3.5c0-0.2,0.2-0.4,0.4-0.4c0.2,0,0.4,0.2,0.4,0.4l-0.2,3.5c0,0.2-0.2,0.4-0.4,0.4
					C99.1-40,98.9-40.2,98.9-40.4z"/>
				<path class="st1" d="M97.6-42.5l0.1-1.5c0-0.2,0.2-0.4,0.4-0.4c0.2,0,0.4,0.2,0.4,0.4l-0.1,1.5c0,0.2-0.2,0.4-0.4,0.4
					C97.8-42.1,97.6-42.3,97.6-42.5z"/>
				<path class="st1" d="M96.2-42.5l0.1-1.5c0-0.2,0.2-0.4,0.4-0.4c0.2,0,0.4,0.2,0.4,0.4L97-42.5c0,0.2-0.2,0.4-0.4,0.4
					C96.4-42.2,96.2-42.3,96.2-42.5z"/>
				<path class="st1" d="M94.9-42.6l0.1-1.5c0-0.2,0.2-0.4,0.4-0.4c0.2,0,0.4,0.2,0.4,0.4l-0.1,1.5c0,0.2-0.2,0.4-0.4,0.4
					C95-42.2,94.9-42.4,94.9-42.6z"/>
				<path class="st1" d="M94.9-42.6l0.1-1.5c0-0.2,0.2-0.4,0.4-0.4c0.2,0,0.4,0.2,0.4,0.4l-0.1,1.5c0,0.2-0.2,0.4-0.4,0.4
					C95-42.2,94.9-42.4,94.9-42.6z"/>
				<path class="st1" d="M93.5-42.7l0.1-1.5c0-0.2,0.2-0.4,0.4-0.4c0.2,0,0.4,0.2,0.4,0.4l-0.1,1.5c0,0.2-0.2,0.4-0.4,0.4
					C93.7-42.3,93.5-42.5,93.5-42.7z"/>
				<path class="st1" d="M92-40.7l0.2-3.5c0-0.2,0.2-0.4,0.4-0.4c0.2,0,0.4,0.2,0.4,0.4l-0.2,3.5c0,0.2-0.2,0.4-0.4,0.4
					C92.2-40.3,92-40.5,92-40.7z"/>
				<path class="st1" d="M90.8-42.8l0.1-1.5c0-0.2,0.2-0.4,0.4-0.4c0.2,0,0.4,0.2,0.4,0.4l-0.1,1.5c0,0.2-0.2,0.4-0.4,0.4
					C91-42.4,90.8-42.6,90.8-42.8z"/>
				<path class="st1" d="M89.4-42.8l0.1-1.5c0-0.2,0.2-0.4,0.4-0.4c0.2,0,0.4,0.2,0.4,0.4l-0.1,1.5c0,0.2-0.2,0.4-0.4,0.4
					C89.6-42.5,89.4-42.6,89.4-42.8z"/>
				<path class="st1" d="M88.1-42.9l0.1-1.5c0-0.2,0.2-0.4,0.4-0.4c0.2,0,0.4,0.2,0.4,0.4l-0.1,1.5c0,0.2-0.2,0.4-0.4,0.4
					C88.2-42.5,88.1-42.7,88.1-42.9z"/>
				<path class="st1" d="M88.1-42.9l0.1-1.5c0-0.2,0.2-0.4,0.4-0.4c0.2,0,0.4,0.2,0.4,0.4l-0.1,1.5c0,0.2-0.2,0.4-0.4,0.4
					C88.2-42.5,88.1-42.7,88.1-42.9z"/>
				<path class="st1" d="M86.7-43l0.1-1.5c0-0.2,0.2-0.4,0.4-0.4c0.2,0,0.4,0.2,0.4,0.4l-0.1,1.5c0,0.2-0.2,0.4-0.4,0.4
					C86.9-42.6,86.7-42.7,86.7-43z"/>
				<path class="st1" d="M85.2-41l0.2-3.5c0-0.2,0.2-0.4,0.4-0.4c0.2,0,0.4,0.2,0.4,0.4L86-41c0,0.2-0.2,0.4-0.4,0.4
					C85.4-40.6,85.2-40.8,85.2-41z"/>
				<path class="st1" d="M82.7-41.4c0-0.5,0.5-0.9,1-0.9c0.5,0,0.9,0.5,0.9,1c0,0.5-0.5,0.9-1,0.9C83.1-40.5,82.7-40.9,82.7-41.4z
					 M83.8-41.4c0-0.1-0.1-0.2-0.2-0.2c-0.1,0-0.2,0.1-0.2,0.2c0,0.1,0.1,0.2,0.2,0.2C83.7-41.2,83.8-41.3,83.8-41.4z"/>
			</g>
			<g>
				<path class="st1" d="M101.9-123l2.4-2.5c0.3-0.3,0.8-0.3,1.1,0l6.6,6.6c0.3,0.3,0.3,0.8,0,1.1l-2.4,2.5c-0.3,0.3-0.8,0.3-1.1,0
					l-6.6-6.6C101.6-122.2,101.6-122.7,101.9-123z M111.6-118.2c0.1-0.1,0.1-0.2,0-0.3L105-125c-0.1-0.1-0.2-0.1-0.3,0l-2.4,2.5
					c-0.1,0.1-0.1,0.2,0,0.3l6.6,6.6c0.1,0.1,0.2,0.1,0.3,0L111.6-118.2z"/>
				<path class="st1" d="M100.9-123.9l2.4-2.5c0.3-0.3,0.8-0.3,1.1,0l7.6,7.5c0.3,0.3,0.3,0.8,0,1.1l-2.4,2.5
					c-0.3,0.3-0.8,0.3-1.1,0l-7.6-7.5C100.6-123.1,100.6-123.6,100.9-123.9z M111.6-118.2c0.1-0.1,0.1-0.2,0-0.3l-7.6-7.5
					c-0.1-0.1-0.2-0.1-0.3,0l-2.4,2.5c-0.1,0.1-0.1,0.2,0,0.3l7.6,7.5c0.1,0.1,0.2,0.1,0.3,0L111.6-118.2z"/>
				<path class="st1" d="M105.6-118.6l3.1-3.2c0.1-0.1,0.3-0.1,0.4,0l0.7,0.7c0.1,0.1,0.1,0.3,0,0.4l-3.1,3.2
					c-0.1,0.1-0.3,0.1-0.4,0l-0.7-0.7C105.5-118.3,105.5-118.5,105.6-118.6z M108.9-121.2l-2.7,2.7l0.3,0.3l2.7-2.7L108.9-121.2z"/>
				<path class="st1" d="M105.6-118.6l3.1-3.2c0.1-0.1,0.3-0.1,0.4,0l0.4,0.4c0.1,0.1,0.1,0.3,0,0.4c-0.1,0.1-0.3,0.1-0.4,0
					l-0.2-0.2l-2.7,2.7l0.2,0.2c0.1,0.1,0.1,0.3,0,0.4c-0.1,0.1-0.3,0.1-0.4,0l-0.4-0.4C105.5-118.3,105.5-118.5,105.6-118.6z"/>
			</g>
			<g>
				
					<rect x="113.1" y="-68.7" transform="matrix(0.3075 -0.9516 0.9516 0.3075 152.7741 74.7593)" class="st3" width="29.3" height="2.2"/>
				
					<rect x="115.8" y="-70.3" transform="matrix(0.3078 -0.9514 0.9514 0.3078 155.4642 76.7682)" class="st3" width="29.3" height="3.6"/>
				
					<rect x="118.6" y="-70.4" transform="matrix(0.3078 -0.9515 0.9515 0.3078 158.2217 78.7651)" class="st3" width="29.3" height="2.2"/>
				<path class="st3" d="M121.2-84.2c-0.5-1.5,0.3-3.1,1.9-3.6l2.1-0.7c1.5-0.5,3.1,0.3,3.6,1.9l0.5,1.6c0.5,1.5-0.8,1.8-2.3,2.3
					L125-82c-1.5,0.5-2.7,1-3.2-0.6L121.2-84.2z"/>
				<path class="st4" d="M121.6-81.5c-0.1-0.3,0.1-0.6,0.4-0.7l7.6-2.5c0.3-0.1,0.6,0.1,0.7,0.4l0,0c0.1,0.3-0.1,0.6-0.4,0.7
					l-7.6,2.5C122-81.1,121.7-81.2,121.6-81.5L121.6-81.5z"/>
				<polygon class="st3" points="136.6,-49.8 137,-49.9 138.8,-55.7 136.7,-55.1 				"/>
				<polygon class="st3" points="136.4,-49.7 135.7,-49.5 131.2,-53.3 133.3,-54 				"/>
				<polygon class="st3" points="136.1,-49.6 136.7,-49.8 136.7,-55.1 133.3,-54 				"/>
				<polygon class="st6" points="136.8,-48.4 134.9,-50.3 137.4,-51.1 				"/>
			</g>
			<g>
				<path class="st3" d="M96.2-69.5c1.9,6-1.4,12.4-7.4,14.4c-6,1.9-12.4-1.4-14.4-7.4c-1.9-6,1.4-12.4,7.4-14.4
					C87.8-78.8,94.2-75.5,96.2-69.5z"/>
				
					<ellipse transform="matrix(0.195 -0.9808 0.9808 0.195 133.3842 30.5637)" class="st3" cx="85.3" cy="-66" rx="12.8" ry="12.8"/>
				<path class="st4" d="M86.3-66.3c0.2,0.6-0.1,1.2-0.7,1.4c-0.6,0.2-1.2-0.1-1.4-0.7c-0.2-0.6,0.1-1.2,0.7-1.4
					C85.5-67.2,86.2-66.9,86.3-66.3z"/>
				<path class="st4" d="M86.1-63.4c-0.1,0-0.2,0-0.3-0.1l-2.8-8.7c0-0.1,0-0.2,0.1-0.3c0.1,0,0.2,0,0.3,0.1l2.8,8.7
					C86.3-63.6,86.3-63.4,86.1-63.4z"/>
				<path class="st4" d="M89.1-67L83-65c-0.1,0-0.2,0-0.3-0.1c0-0.1,0-0.2,0.1-0.3l6.1-2c0.1,0,0.2,0,0.3,0.1
					C89.3-67.1,89.2-67,89.1-67z"/>
				<path class="st4" d="M83.1-72.7c-0.2,0.1-0.5-0.1-0.5-0.3L82-74.7c-0.1-0.2,0.1-0.5,0.3-0.5c0.2-0.1,0.5,0.1,0.5,0.3l0.6,1.8
					C83.5-73,83.4-72.8,83.1-72.7z"/>
				<path class="st4" d="M88.3-56.7c-0.2,0.1-0.5-0.1-0.5-0.3l-0.6-1.8c-0.1-0.2,0.1-0.5,0.3-0.5c0.2-0.1,0.5,0.1,0.5,0.3l0.6,1.8
					C88.7-57,88.5-56.7,88.3-56.7z"/>
				<path class="st4" d="M94.3-68.4l-1.8,0.6c-0.2,0.1-0.5-0.1-0.5-0.3c-0.1-0.2,0.1-0.5,0.3-0.5l1.8-0.6c0.2-0.1,0.5,0.1,0.5,0.3
					C94.7-68.7,94.6-68.5,94.3-68.4z"/>
				<path class="st4" d="M78.3-63.3l-1.8,0.6c-0.2,0.1-0.5-0.1-0.5-0.3c-0.1-0.2,0.1-0.5,0.3-0.5l1.8-0.6c0.2-0.1,0.5,0.1,0.5,0.3
					C78.7-63.6,78.5-63.3,78.3-63.3z"/>
				<path class="st4" d="M78.8-69c-0.1,0-0.2,0-0.3,0l-1.7-0.9c-0.2-0.1-0.3-0.4-0.2-0.6c0.1-0.2,0.4-0.3,0.6-0.2l1.7,0.9
					c0.2,0.1,0.3,0.4,0.2,0.6C79-69.1,78.9-69,78.8-69z"/>
				<path class="st4" d="M93.8-61.3c-0.1,0-0.2,0-0.3,0l-1.7-0.9c-0.2-0.1-0.3-0.4-0.2-0.6c0.1-0.2,0.4-0.3,0.6-0.2l1.7,0.9
					c0.2,0.1,0.3,0.4,0.2,0.6C94-61.4,93.9-61.3,93.8-61.3z"/>
				<path class="st4" d="M88.9-72.2c-0.1,0-0.2,0-0.3,0c-0.2-0.1-0.3-0.4-0.2-0.6l0.9-1.7c0.1-0.2,0.4-0.3,0.6-0.2
					c0.2,0.1,0.3,0.4,0.2,0.6l-0.9,1.7C89.1-72.3,89-72.3,88.9-72.2z"/>
				<path class="st4" d="M81.2-57.2c-0.1,0-0.2,0-0.3,0c-0.2-0.1-0.3-0.4-0.2-0.6l0.9-1.7c0.1-0.2,0.4-0.3,0.6-0.2
					c0.2,0.1,0.3,0.4,0.2,0.6l-0.9,1.7C81.4-57.3,81.3-57.3,81.2-57.2z"/>
			</g>
			<g>
				<g>
					<path class="st5" d="M121.8-54.9c1.1-2.1-2.5-6.1-8.1-9c-5.7-2.9-11-3.6-12.1-1.4c-1.1,2.1,2.5,6.1,8.1,9
						C115.4-53.4,120.7-52.8,121.8-54.9z M102.3-65.1c0.8-1.5,5.5-1.2,11.1,1.7c5.7,2.9,8.6,6.6,7.8,8.1c-0.8,1.5-5.5,1.2-11.1-1.7
						C104.4-59.9,101.5-63.5,102.3-65.1z"/>
					<path class="st5" d="M121.8-54.9c1.1-2.1-2.5-6.1-8.1-9c-5.7-2.9-11-3.6-12.1-1.4c-1.1,2.1,2.5,6.1,8.1,9
						C115.4-53.4,120.7-52.8,121.8-54.9z M102.3-65.1c0.8-1.5,5.5-1.2,11.1,1.7c5.7,2.9,8.6,6.6,7.8,8.1c-0.8,1.5-5.5,1.2-11.1-1.7
						C104.4-59.9,101.5-63.5,102.3-65.1z"/>
				</g>
				<g>
					<path class="st5" d="M116.4-50.5c1.1-2.1,0.8-6.4-0.6-11c-1.9-6.1-5.2-10.3-7.5-9.5c-0.5,0.2-0.9,0.6-1.3,1.2
						c-1.1,2.1-0.8,6.4,0.6,11c1.9,6.1,5.2,10.3,7.5,9.6C115.7-49.5,116.1-49.9,116.4-50.5z M107.7-69.5c0.2-0.4,0.5-0.7,0.9-0.8
						c1.6-0.5,4.7,3,6.6,9.1c1.4,4.4,1.6,8.5,0.7,10.4c-0.2,0.4-0.5,0.7-0.9,0.8c-1.6,0.5-4.7-3-6.6-9.1
						C107-63.4,106.7-67.6,107.7-69.5z"/>
					<path class="st5" d="M116.4-50.5c1.1-2.1,0.8-6.4-0.6-11c-1.9-6.1-5.2-10.3-7.5-9.5c-0.5,0.2-0.9,0.6-1.3,1.2
						c-1.1,2.1-0.8,6.4,0.6,11c1.9,6.1,5.2,10.3,7.5,9.6C115.7-49.5,116.1-49.9,116.4-50.5z M107.7-69.5c0.2-0.4,0.5-0.7,0.9-0.8
						c1.6-0.5,4.7,3,6.6,9.1c1.4,4.4,1.6,8.5,0.7,10.4c-0.2,0.4-0.5,0.7-0.9,0.8c-1.6,0.5-4.7-3-6.6-9.1
						C107-63.4,106.7-67.6,107.7-69.5z"/>
				</g>
				<g>
					<path class="st5" d="M122.4-61.9c0.3-0.6,0.4-1.2,0.2-1.7c-0.7-2.3-6-2.6-12.1-0.6c-4.6,1.5-8.2,3.7-9.3,5.8
						c-0.3,0.6-0.4,1.2-0.2,1.7c0.7,2.3,6.1,2.6,12.1,0.6C117.6-57.5,121.3-59.8,122.4-61.9z M101.8-58.1c1-1.9,4.6-4.1,8.9-5.4
						c6.1-1.9,10.7-1.5,11.3,0.2c0.1,0.3,0,0.7-0.2,1.2c-1,1.9-4.6,4.1-8.9,5.5c-6.1,1.9-10.7,1.5-11.3-0.2
						C101.5-57.3,101.5-57.7,101.8-58.1z"/>
					<path class="st5" d="M122.4-61.9c0.3-0.6,0.4-1.2,0.2-1.7c-0.7-2.3-6-2.6-12.1-0.6c-4.6,1.5-8.2,3.7-9.3,5.8
						c-0.3,0.6-0.4,1.2-0.2,1.7c0.7,2.3,6.1,2.6,12.1,0.6C117.6-57.5,121.3-59.8,122.4-61.9z M101.8-58.1c1-1.9,4.6-4.1,8.9-5.4
						c6.1-1.9,10.7-1.5,11.3,0.2c0.1,0.3,0,0.7-0.2,1.2c-1,1.9-4.6,4.1-8.9,5.5c-6.1,1.9-10.7,1.5-11.3-0.2
						C101.5-57.3,101.5-57.7,101.8-58.1z"/>
				</g>
				<g>
					<path class="st5" d="M106.4-67.8c0.6,0.3,1.2,0.1,1.5-0.5c0.3-0.6,0.1-1.2-0.5-1.5c-0.6-0.3-1.2-0.1-1.5,0.5
						C105.6-68.7,105.8-68.1,106.4-67.8z"/>
					<path class="st5" d="M106.4-67.8c0.6,0.3,1.2,0.1,1.5-0.5c0.3-0.6,0.1-1.2-0.5-1.5c-0.6-0.3-1.2-0.1-1.5,0.5
						C105.6-68.7,105.8-68.1,106.4-67.8z"/>
				</g>
				<g>
					<path class="st5" d="M105.4-54.2c0.6,0.3,1.2,0.1,1.5-0.5c0.3-0.6,0.1-1.2-0.5-1.5c-0.6-0.3-1.2-0.1-1.5,0.5
						C104.7-55.1,104.9-54.4,105.4-54.2z"/>
					<path class="st5" d="M105.4-54.2c0.6,0.3,1.2,0.1,1.5-0.5c0.3-0.6,0.1-1.2-0.5-1.5c-0.6-0.3-1.2-0.1-1.5,0.5
						C104.7-55.1,104.9-54.4,105.4-54.2z"/>
				</g>
				<g>
					<path class="st5" d="M121-54.1c0.6,0.3,1.2,0.1,1.5-0.5c0.3-0.6,0.1-1.2-0.5-1.5c-0.6-0.3-1.2-0.1-1.5,0.5
						C120.2-55.1,120.5-54.4,121-54.1z"/>
					<path class="st5" d="M121-54.1c0.6,0.3,1.2,0.1,1.5-0.5c0.3-0.6,0.1-1.2-0.5-1.5c-0.6-0.3-1.2-0.1-1.5,0.5
						C120.2-55.1,120.5-54.4,121-54.1z"/>
				</g>
				<g>
					<path class="st5" d="M110.6-57.9c1.2,0.6,2.8,0.2,3.4-1.1c0.6-1.2,0.2-2.8-1.1-3.4c-1.2-0.6-2.8-0.2-3.4,1.1
						C108.9-60.1,109.3-58.6,110.6-57.9z"/>
					<path class="st5" d="M110.6-57.9c1.2,0.6,2.8,0.2,3.4-1.1c0.6-1.2,0.2-2.8-1.1-3.4c-1.2-0.6-2.8-0.2-3.4,1.1
						C108.9-60.1,109.3-58.6,110.6-57.9z"/>
				</g>
			</g>
			<g>
				<path class="st2" d="M98.8-79.2C98.7-79.2,98.7-79.2,98.8-79.2l-1.9-0.1c-0.1,0-0.2-0.1-0.2-0.2c0-0.1,0-0.2,0.1-0.2l17.1-8.9
					c0.4-0.2,0.8-0.6,0.9-1.1c0.1-0.5,0.1-1-0.1-1.4l-10.8-20.7c-0.5-0.9-1.5-1.2-2.4-0.9c-0.1,0-0.2,0-0.2,0
					c-0.1,0-0.1-0.1-0.1-0.2c0-0.1,0.1-0.1,0.1-0.2l0.4-0.2c0,0,0,0,0,0c1.2-0.6,2.6-0.2,3.2,1L116.2-91c0.3,0.6,0.4,1.2,0.2,1.8
					c-0.2,0.6-0.6,1.1-1.2,1.4L98.8-79.2C98.8-79.2,98.8-79.2,98.8-79.2z M97.7-79.7l0.9,0.1l16.3-8.5c0.5-0.2,0.8-0.6,1-1.1
					c0.2-0.5,0.1-1-0.1-1.5l-11.2-21.4c-0.3-0.6-1-1-1.6-1c0.5,0.2,1,0.6,1.3,1.1l10.8,20.7c0.3,0.5,0.3,1.2,0.2,1.8
					c-0.2,0.6-0.6,1.1-1.1,1.4L97.7-79.7z"/>
				<path class="st2" d="M101.4-112.7l-0.1-0.2l-0.1,0.1l0,0l0.1-0.1l-0.1-0.2l0.3-0.1l0.3,0.4L101.4-112.7
					C101.5-112.7,101.5-112.7,101.4-112.7L101.4-112.7L101.4-112.7z"/>
				<path class="st2" d="M97-79.3C96.9-79.3,96.9-79.3,97-79.3l-1.3-0.1c-0.1,0-0.2-0.1-0.2-0.2c0-0.1,0-0.2,0.1-0.2l16.4-8.5
					c0.9-0.5,1.3-1.7,0.8-2.6l-11.2-21.4c-0.1-0.2-0.2-0.3-0.3-0.4c-0.1-0.1-0.1-0.1-0.1-0.2c0-0.1,0.1-0.1,0.1-0.2
					c1.1-0.5,2.4,0,2.9,1.1l10.8,20.7h0c0.3,0.5,0.3,1.2,0.2,1.8c-0.2,0.6-0.6,1.1-1.1,1.4L97-79.3C97-79.3,97-79.3,97-79.3z
					 M96.5-79.7l0.4,0l17.1-8.9c0.4-0.2,0.8-0.6,0.9-1.1c0.1-0.5,0.1-1-0.1-1.4l0,0l-10.8-20.7c-0.4-0.8-1.3-1.1-2.1-1
					c0.1,0.1,0.1,0.2,0.2,0.3l11.2,21.4c0.6,1.2,0.2,2.6-1,3.2L96.5-79.7z"/>
				<path class="st2" d="M95.8-79.4c0,0-0.1,0-0.1,0c-0.1,0-0.1-0.1-0.1-0.1l-13.2-25.3c-0.1-0.1,0-0.2,0.1-0.3l16.4-8.6
					c0.9-0.5,2.1-0.3,2.8,0.5c0,0,0,0,0,0c0.2,0.2,0.3,0.3,0.4,0.5l11.2,21.4c0.6,1.2,0.2,2.6-1,3.2L95.8-79.4
					C95.8-79.4,95.8-79.4,95.8-79.4z M82.8-104.7l13,24.9l16.2-8.4c0.9-0.5,1.3-1.7,0.8-2.6l-11.2-21.4c-0.1-0.1-0.1-0.2-0.2-0.3
					c-0.1,0-0.3-0.2-0.3-0.3c-0.6-0.5-1.4-0.6-2.1-0.2L82.8-104.7z"/>
				<path class="st2" d="M95.8-79.4c0,0-0.1,0-0.1,0c-0.1,0-0.1-0.1-0.1-0.1l-13.2-25.3c-0.1-0.1,0-0.2,0.1-0.3l2.3-1.2
					c0.1,0,0.1,0,0.2,0c0.1,0,0.1,0.1,0.1,0.1l13.2,25.3c0.1,0.1,0,0.2-0.1,0.3L95.8-79.4C95.8-79.4,95.8-79.4,95.8-79.4z
					 M82.8-104.7l13,24.9l1.9-1l-13-24.9L82.8-104.7z"/>
				<path class="st2" d="M93.5-99.2c0,0-0.1,0-0.1,0c-0.1,0-0.1-0.1-0.1-0.1l-2.9-5.6c-0.1-0.1,0-0.2,0.1-0.3l7.1-3.7
					c0.1,0,0.1,0,0.2,0c0.1,0,0.1,0.1,0.1,0.1l2.9,5.6c0.1,0.1,0,0.2-0.1,0.3L93.5-99.2C93.6-99.2,93.5-99.2,93.5-99.2z M90.8-104.9
					l2.7,5.2l6.8-3.5l-2.7-5.2L90.8-104.9z"/>
			</g>
			<g>
				<path class="st2" d="M146.7-57.4c-0.2,0.1-0.4,0-0.6-0.2c-1.9-3.6-2.3-7.7-1.2-11.5c1.1-3.8,3.6-6.9,7.1-8.7
					c7.1-3.7,16.1-0.7,19.9,6.7c0.1,0.1,0.1,0.2,0,0.4c0,0.1-0.1,0.2-0.2,0.3L146.7-57.4C146.7-57.4,146.7-57.4,146.7-57.4z
					 M155-77.9c-0.8,0.2-1.7,0.6-2.5,1c-3.2,1.7-5.6,4.6-6.6,8.1c-1,3.4-0.7,7.1,0.9,10.3L170.9-71C167.6-76.9,161-79.6,155-77.9z"
					/>
				<path class="st2" d="M150.8-64.4c-0.1,0-0.2,0-0.3,0c-0.1,0-0.2-0.1-0.3-0.2c-1.5-2.9,0.3-6.8,4.1-8.8c3.8-2,8.1-1.2,9.6,1.7
					c0.1,0.1,0.1,0.2,0,0.4c0,0.1-0.1,0.2-0.2,0.3L150.8-64.4C150.8-64.4,150.8-64.4,150.8-64.4z M156.5-73.3
					c-0.6,0.2-1.2,0.4-1.7,0.7c-3.1,1.6-4.8,4.7-3.9,7.1l11.9-6.2C161.6-73.4,159.1-74,156.5-73.3z"/>
				<g>
					<path class="st2" d="M149.9-59.1c-0.2,0.1-0.4,0-0.6-0.2l-1.3-2.4c-0.1-0.2,0-0.5,0.2-0.6c0.2-0.1,0.5,0,0.6,0.2l1.3,2.4
						C150.3-59.5,150.2-59.3,149.9-59.1C149.9-59.1,149.9-59.1,149.9-59.1z"/>
					<path class="st2" d="M151.4-59.9c-0.2,0.1-0.4,0-0.6-0.2l-0.6-1.2c-0.1-0.2,0-0.5,0.2-0.6c0.2-0.1,0.5,0,0.6,0.2l0.6,1.2
						C151.8-60.3,151.7-60.1,151.4-59.9C151.5-59.9,151.4-59.9,151.4-59.9z"/>
					<path class="st2" d="M153-60.7c-0.2,0.1-0.4,0-0.6-0.2l-0.6-1.2c-0.1-0.2,0-0.5,0.2-0.6c0.2-0.1,0.5,0,0.6,0.2l0.6,1.2
						C153.4-61.2,153.3-60.9,153-60.7C153-60.7,153-60.7,153-60.7z"/>
					<path class="st2" d="M154.5-61.5c-0.2,0.1-0.4,0-0.6-0.2l-0.6-1.2c-0.1-0.2,0-0.5,0.2-0.6c0.2-0.1,0.5,0,0.6,0.2l0.6,1.2
						C154.9-62,154.8-61.7,154.5-61.5C154.6-61.5,154.5-61.5,154.5-61.5z"/>
					<path class="st2" d="M156.1-62.3c-0.2,0.1-0.4,0-0.6-0.2l-1.3-2.4c-0.1-0.2,0-0.5,0.2-0.6c0.2-0.1,0.5,0,0.6,0.2l1.3,2.4
						C156.5-62.8,156.4-62.5,156.1-62.3C156.1-62.3,156.1-62.3,156.1-62.3z"/>
					<path class="st2" d="M157.6-63.1c-0.2,0.1-0.4,0-0.6-0.2l-0.6-1.2c-0.1-0.2,0-0.5,0.2-0.6c0.2-0.1,0.5,0,0.6,0.2l0.6,1.2
						C158-63.6,157.9-63.3,157.6-63.1C157.7-63.1,157.6-63.1,157.6-63.1z"/>
					<path class="st2" d="M159.1-63.9c-0.2,0.1-0.4,0-0.6-0.2l-0.6-1.2c-0.1-0.2,0-0.5,0.2-0.6c0.2-0.1,0.5,0,0.6,0.2l0.6,1.2
						C159.6-64.4,159.5-64.1,159.1-63.9C159.2-64,159.2-63.9,159.1-63.9z"/>
					<path class="st2" d="M160.7-64.7c-0.2,0.1-0.4,0-0.6-0.2l-0.6-1.2c-0.1-0.2,0-0.5,0.2-0.6c0.2-0.1,0.5,0,0.6,0.2l0.6,1.2
						C161.1-65.2,161-64.9,160.7-64.7C160.8-64.8,160.7-64.7,160.7-64.7z"/>
					<path class="st2" d="M162.2-65.5c-0.2,0.1-0.4,0-0.6-0.2l-1.3-2.4c-0.1-0.2,0-0.5,0.2-0.6c0.2-0.1,0.5,0,0.6,0.2l1.3,2.4
						C162.7-66,162.6-65.7,162.2-65.5C162.3-65.6,162.3-65.6,162.2-65.5z"/>
					<path class="st2" d="M163.8-66.4c-0.2,0.1-0.4,0-0.6-0.2l-0.6-1.2c-0.1-0.2,0-0.5,0.2-0.6c0.2-0.1,0.5,0,0.6,0.2l0.6,1.2
						C164.2-66.8,164.1-66.5,163.8-66.4C163.9-66.4,163.8-66.4,163.8-66.4z"/>
					<path class="st2" d="M165.3-67.2c-0.2,0.1-0.4,0-0.6-0.2l-0.6-1.2c-0.1-0.2,0-0.5,0.2-0.6c0.2-0.1,0.5,0,0.6,0.2l0.6,1.2
						C165.8-67.6,165.7-67.3,165.3-67.2C165.4-67.2,165.4-67.2,165.3-67.2z"/>
					<path class="st2" d="M166.9-68c-0.2,0.1-0.4,0-0.6-0.2l-0.6-1.2c-0.1-0.2,0-0.5,0.2-0.6c0.2-0.1,0.5,0,0.6,0.2l0.6,1.2
						C167.3-68.4,167.2-68.1,166.9-68C167-68,166.9-68,166.9-68z"/>
					<path class="st2" d="M168.4-68.8c-0.2,0.1-0.4,0-0.6-0.2l-1.3-2.4c-0.1-0.2,0-0.5,0.2-0.6c0.2-0.1,0.5,0,0.6,0.2l1.3,2.4
						C168.9-69.2,168.8-68.9,168.4-68.8C168.5-68.8,168.5-68.8,168.4-68.8z"/>
				</g>
			</g>
			<g>
				<path class="st2" d="M155.7-85.8c-1.7,2.6-4.2,4.2-7.1,4.5c-1,0.1-2-0.1-2.7-0.4c-0.4,0.1-0.9,0.1-1.3,0.1c-0.5,0-1-0.1-1.5-0.3
					c0,0,0,0-0.1,0c-2.7-0.9-4.8-3-5.8-6c-1.2-3.5-0.6-7.5,1.3-10.4c1-1.5,2.3-2.4,3.8-2.6c2.6-0.4,5,1.1,5.6,1.5
					c0.1-0.1,0.4-0.1,0.6-0.2l0,0l0.6-0.1c0,0,0,0,0,0l0.2,0l0,0c1.8-0.4,5.8-0.7,7.5,3.7C158.1-93,157.6-88.9,155.7-85.8z
					 M146.1-82.4c0.7,0.3,1.5,0.5,2.4,0.4c2.7-0.2,5-1.7,6.6-4.1c1.8-2.9,2.3-6.8,1.1-9.8c-1.4-3.5-4.3-3.7-6.3-3.3l-0.7,0.2
					l-0.7,0.2c-0.2,0.1-0.3,0.1-0.3,0.1l-0.2,0.1l-0.2-0.1c0,0-1-0.7-2.3-1.2c-0.8-0.3-1.8-0.5-2.8-0.3c-1.3,0.2-2.5,1-3.4,2.3
					c-1.9,2.7-2.3,6.5-1.2,9.8c0.9,2.7,2.8,4.7,5.3,5.5c0,0,0,0,0.1,0c0.4,0.1,0.8,0.2,1.2,0.3C145.2-82.3,146.1-82.4,146.1-82.4z"
					/>
				<path class="st5" d="M141.1-96.4c-0.1,0-0.1,0-0.2-0.1c-0.3-0.2-0.4-0.6-0.2-1c0.3-0.5,0.7-0.9,1.1-1.3c0.3-0.3,0.7-0.2,1,0
					c0.3,0.3,0.2,0.7,0,1c-0.3,0.3-0.6,0.6-0.9,1C141.7-96.4,141.4-96.3,141.1-96.4z"/>
				<path class="st5" d="M139.1-90.7c-0.3-0.1-0.5-0.4-0.5-0.7c0.1-1.4,0.5-2.7,1-3.9c0.2-0.3,0.6-0.5,0.9-0.3
					c0.3,0.2,0.5,0.6,0.3,0.9c-0.5,1.1-0.8,2.2-0.9,3.5c0,0.4-0.4,0.7-0.7,0.6C139.2-90.7,139.1-90.7,139.1-90.7z"/>
				<path class="st2" d="M147.6-99c0-0.1-0.5-2.2,1.4-4l0.5,0.5c-1.6,1.5-1.2,3.2-1.2,3.3L147.6-99z"/>
				<path class="st2" d="M146.1-101.2c-0.1,0-0.1,0-0.2-0.1c-1.2-0.5-2.1-1.9-2.5-4.2l0-0.2l0.2-0.1c0,0,0.8-0.7,1.9-0.4
					c1.3,0.4,2.3,1.8,3.1,4.3l0.1,0.3l-0.2,0.1C148.3-101.4,147.3-100.8,146.1-101.2z M144-105.4c0.4,1.9,1.2,3.1,2.1,3.5
					c0.7,0.3,1.3,0.1,1.6,0c-0.9-2.6-1.9-3.4-2.6-3.6C144.7-105.7,144.3-105.5,144-105.4z"/>
			</g>
			<g>
				<g>
					<path class="st2" d="M123.1-96.3c-1.5-0.4-2.9-1.2-3.9-2.4c-1.4-1.6-2.2-3.7-2-5.9c0-0.6,0.1-1.2,0.3-1.8
						c0-0.2,0.2-0.3,0.4-0.2l15.1,0.9c0.2,0,0.3,0.1,0.3,0.3c0.1,0.6,0.1,1.2,0.1,1.8c-0.3,4.5-4.1,7.9-8.6,7.6
						C124.2-96.1,123.7-96.2,123.1-96.3z M118.1-106c-0.1,0.5-0.2,0.9-0.2,1.4c-0.1,2,0.5,3.9,1.9,5.4c1.3,1.5,3.1,2.4,5.1,2.5
						c4.1,0.2,7.6-2.9,7.8-7c0-0.5,0-1-0.1-1.4L118.1-106z"/>
					<path class="st2" d="M122.7-94.7c-1.8-0.5-3.5-1.5-4.7-2.9c-1.7-2-2.6-4.5-2.5-7.1c0.2-3.9,2.9-7.4,6.6-8.7l0.6-10.9l-0.3,0
						c-0.3,0-0.6-0.2-0.8-0.4c-0.2-0.2-0.3-0.5-0.3-0.8c0-0.6,0.6-1.1,1.2-1.1l8,0.5c0.6,0,1.1,0.6,1.1,1.2c0,0.3-0.2,0.6-0.4,0.8
						c-0.2,0.2-0.5,0.3-0.8,0.3l-0.3,0l-0.6,10.9c3.5,1.7,5.7,5.5,5.5,9.4c-0.3,5.4-5,9.5-10.3,9.2C124-94.4,123.3-94.5,122.7-94.7z
						 M123.2-124.9c0.2,0,0.3,0.2,0.3,0.4l-0.7,11.5c0,0.1-0.1,0.3-0.2,0.3c-3.6,1.1-6.1,4.4-6.3,8.1c-0.3,4.4,2.6,8.2,6.7,9.3
						c0.6,0.2,1.2,0.3,1.8,0.3c2.4,0.1,4.8-0.7,6.6-2.3c1.8-1.6,2.9-3.8,3-6.3c0.2-3.7-1.9-7.3-5.3-8.8c-0.1-0.1-0.2-0.2-0.2-0.3
						l0.7-11.5c0-0.2,0.2-0.3,0.4-0.3l0.6,0c0.1,0,0.2,0,0.3-0.1c0.1-0.1,0.1-0.2,0.1-0.3c0-0.2-0.2-0.4-0.4-0.5l-8-0.5
						c-0.2,0-0.4,0.2-0.5,0.4c0,0.1,0,0.2,0.1,0.3c0.1,0.1,0.2,0.1,0.3,0.1L123.2-124.9C123.1-125,123.1-125,123.2-124.9z"/>
				</g>
				<g>
					<path class="st2" d="M129.3-100.4c-0.6-0.2-1.1-0.8-1-1.5c0-0.4,0.2-0.7,0.5-1c0.3-0.3,0.7-0.4,1-0.4c0.8,0,1.4,0.7,1.3,1.5v0
						c0,0.4-0.2,0.7-0.5,1c-0.3,0.3-0.7,0.4-1,0.4C129.5-100.3,129.4-100.3,129.3-100.4z M129.9-102.4c0,0-0.1,0-0.1,0
						c-0.4,0-0.8,0.3-0.8,0.7c0,0.4,0.3,0.8,0.7,0.8c0.4,0,0.8-0.3,0.8-0.7C130.4-102,130.2-102.3,129.9-102.4z"/>
					<path class="st2" d="M127.3-98.5c-0.5-0.1-0.8-0.5-0.7-1c0-0.6,0.5-1,1.1-0.9c0.6,0,1,0.5,0.9,1.1c0,0.6-0.5,1-1.1,0.9
						C127.5-98.4,127.4-98.4,127.3-98.5z M127.7-99.7C127.7-99.7,127.7-99.8,127.7-99.7c-0.2,0-0.2,0-0.3,0.1
						c-0.1,0.1-0.1,0.1-0.1,0.2c0,0.1,0,0.2,0.1,0.2c0.1,0.1,0.1,0.1,0.2,0.1c0.1,0,0.2,0,0.2-0.1c0.1-0.1,0.1-0.1,0.1-0.2
						c0-0.1,0-0.2-0.1-0.2C127.8-99.7,127.8-99.7,127.7-99.7z"/>
					<path class="st2" d="M126.6-100.7c-0.5-0.1-0.8-0.5-0.7-1c0-0.3,0.1-0.5,0.3-0.7c0.2-0.2,0.5-0.3,0.7-0.3
						c0.3,0,0.5,0.1,0.7,0.3c0.2,0.2,0.3,0.5,0.3,0.7l0,0c0,0.3-0.1,0.5-0.3,0.7c-0.2,0.2-0.5,0.3-0.7,0.3
						C126.7-100.7,126.6-100.7,126.6-100.7z M126.9-102C126.9-102,126.9-102,126.9-102c-0.2,0-0.2,0-0.3,0.1
						c-0.1,0.1-0.1,0.1-0.1,0.2c0,0.2,0.1,0.3,0.3,0.3c0.1,0,0.2,0,0.2-0.1c0.1-0.1,0.1-0.1,0.1-0.2c0,0,0,0,0,0
						c0-0.1,0-0.2-0.1-0.2C127-102,127-102,126.9-102z"/>
				</g>
			</g>
			<g>
				<path class="st2" d="M141.2-25.2c-1.8-1.5-2.3-4.2-1.1-6.3l2.7-4.8c0,0,0-0.1,0.1-0.1c0.1-0.1,1.9-1.7,5.5,0.3
					c3.6,2,3.4,4.5,3.4,4.6c0,0.1,0,0.1-0.1,0.2l-2.7,4.8c-1.4,2.5-4.5,3.3-6.9,2C141.7-24.8,141.4-25,141.2-25.2z M143.4-35.9
					l-2.6,4.8c-1.1,2-0.4,4.6,1.6,5.7c2,1.1,4.6,0.4,5.7-1.6l2.6-4.8c0-0.4-0.2-2.1-2.9-3.6C145.1-37,143.7-36.1,143.4-35.9z"/>
				<path class="st2" d="M140.9-32.4c-0.2-0.1-0.2-0.4-0.1-0.5l0.6-1.2c0.1-0.1,0.2-0.2,0.3-0.2c0.1,0,0.2,0,0.3,0l8.1,4.5
					c0.1,0.1,0.2,0.2,0.2,0.3c0,0.1,0,0.2,0,0.3l-0.6,1.2c-0.1,0.2-0.4,0.3-0.6,0.2L140.9-32.4C140.9-32.4,140.9-32.4,140.9-32.4z
					 M142-33.3l-0.2,0.4l7.3,4.1l0.2-0.4L142-33.3z"/>
				<path class="st2" d="M139.8-30.5c-0.1-0.1-0.1-0.1-0.1-0.2c0-0.1,0-0.2,0-0.3l0.6-1.2c0.1-0.2,0.4-0.3,0.6-0.2l8.1,4.5
					c0.2,0.1,0.3,0.4,0.2,0.6l-0.6,1.2c-0.1,0.1-0.2,0.2-0.3,0.2c-0.1,0-0.2,0-0.3,0L139.8-30.5C139.9-30.5,139.9-30.5,139.8-30.5z
					 M140.9-31.4l-0.2,0.4l7.3,4.1l0.2-0.4L140.9-31.4z"/>
				<path class="st2" d="M145-33.6c-3.4-2.9-4.4-7.9-2.2-12c2.6-4.7,8.5-6.4,13.1-3.8c2.3,1.2,3.9,3.3,4.6,5.8
					c0.7,2.5,0.4,5.1-0.8,7.3c-2.6,4.7-8.5,6.4-13.1,3.8C146-32.8,145.4-33.2,145-33.6z M143.6-45.2c-2.3,4.2-0.8,9.6,3.4,11.9
					c4.2,2.3,9.6,0.8,11.9-3.4c1.1-2.1,1.4-4.4,0.7-6.7c-0.7-2.3-2.1-4.1-4.2-5.3c-2.1-1.1-4.4-1.4-6.7-0.7
					C146.6-48.7,144.7-47.2,143.6-45.2L143.6-45.2z"/>
				<path class="st2" d="M145.7-36.3c0,0-0.1-0.1-0.1-0.2c-0.1-0.1-0.1-0.3,0-0.4l2.3-4.2c0.4-0.7,1-1.2,1.7-1.4
					c0.7-0.2,1.5-0.1,2.2,0.2c1.4,0.8,1.9,2.5,1.1,3.9l-2.4,4.3c-0.1,0.1-0.2,0.2-0.3,0.2c-0.1,0-0.3,0-0.4-0.1
					c-0.2-0.2-0.3-0.3-0.5-0.5c-0.2-0.1-0.2-0.4-0.1-0.5l2.3-4.1c0.2-0.3,0.2-0.6,0.1-1c-0.1-0.3-0.3-0.6-0.6-0.8
					c-0.3-0.2-0.6-0.2-1-0.1c-0.3,0.1-0.6,0.3-0.8,0.6c0,0,0,0,0,0l-2.2,4.1c-0.1,0.2-0.3,0.3-0.5,0.2c-0.2-0.1-0.5-0.1-0.7-0.2
					C145.8-36.2,145.7-36.3,145.7-36.3z"/>
			</g>
		</g>
		<g>
			<g>
				<path class="st1" d="M0.1-84.4l0.4-8.5c0-0.2,0.2-0.4,0.4-0.4L52.7-91c0.2,0,0.4,0.2,0.4,0.4l-0.4,8.5c0,0.2-0.2,0.4-0.4,0.4
					L0.5-84C0.3-84,0.1-84.2,0.1-84.4z M1.2-92.5l-0.3,7.8L52-82.5l0.3-7.8L1.2-92.5z"/>
				<path class="st1" d="M0.2-86.3l0.3-6.6c0-0.2,0.2-0.4,0.4-0.4L52.7-91c0.2,0,0.4,0.2,0.4,0.4L52.8-84c0,0.2-0.2,0.4-0.4,0.4
					L0.6-85.9C0.4-85.9,0.2-86.1,0.2-86.3z M1.2-92.5L1-86.6l51.1,2.2l0.3-5.9L1.2-92.5z"/>
				<path class="st1" d="M50.6-88.1l0.1-1.5c0-0.2,0.2-0.4,0.4-0.4c0.2,0,0.4,0.2,0.4,0.4l-0.1,1.5c0,0.2-0.2,0.4-0.4,0.4
					C50.7-87.7,50.6-87.9,50.6-88.1z"/>
				<path class="st1" d="M49.2-88.2l0.1-1.5c0-0.2,0.2-0.4,0.4-0.4c0.2,0,0.4,0.2,0.4,0.4L50-88.2c0,0.2-0.2,0.4-0.4,0.4
					C49.4-87.8,49.2-88,49.2-88.2z"/>
				<path class="st1" d="M47.8-88.2l0.1-1.5c0-0.2,0.2-0.4,0.4-0.4c0.2,0,0.4,0.2,0.4,0.4l-0.1,1.5c0,0.2-0.2,0.4-0.4,0.4
					C48-87.9,47.8-88,47.8-88.2z"/>
				<path class="st1" d="M47.8-88.2l0.1-1.5c0-0.2,0.2-0.4,0.4-0.4c0.2,0,0.4,0.2,0.4,0.4l-0.1,1.5c0,0.2-0.2,0.4-0.4,0.4
					C48-87.9,47.8-88,47.8-88.2z"/>
				<path class="st1" d="M46.5-88.3l0.1-1.5c0-0.2,0.2-0.4,0.4-0.4c0.2,0,0.4,0.2,0.4,0.4l-0.1,1.5c0,0.2-0.2,0.4-0.4,0.4
					C46.6-87.9,46.4-88.1,46.5-88.3z"/>
				<path class="st1" d="M45-86.4l0.2-3.5c0-0.2,0.2-0.4,0.4-0.4c0.2,0,0.4,0.2,0.4,0.4l-0.2,3.5c0,0.2-0.2,0.4-0.4,0.4
					C45.2-86,45-86.2,45-86.4z"/>
				<path class="st1" d="M43.7-88.4l0.1-1.5c0-0.2,0.2-0.4,0.4-0.4c0.2,0,0.4,0.2,0.4,0.4l-0.1,1.5c0,0.2-0.2,0.4-0.4,0.4
					C43.9-88,43.7-88.2,43.7-88.4z"/>
				<path class="st1" d="M42.3-88.5l0.1-1.5c0-0.2,0.2-0.4,0.4-0.4c0.2,0,0.4,0.2,0.4,0.4l-0.1,1.5c0,0.2-0.2,0.4-0.4,0.4
					C42.5-88.1,42.3-88.3,42.3-88.5z"/>
				<path class="st1" d="M41-88.5L41-90c0-0.2,0.2-0.4,0.4-0.4c0.2,0,0.4,0.2,0.4,0.4l-0.1,1.5c0,0.2-0.2,0.4-0.4,0.4
					C41.1-88.2,41-88.3,41-88.5z"/>
				<path class="st1" d="M41-88.5L41-90c0-0.2,0.2-0.4,0.4-0.4c0.2,0,0.4,0.2,0.4,0.4l-0.1,1.5c0,0.2-0.2,0.4-0.4,0.4
					C41.1-88.2,41-88.3,41-88.5z"/>
				<path class="st1" d="M39.6-88.6l0.1-1.5c0-0.2,0.2-0.4,0.4-0.4c0.2,0,0.4,0.2,0.4,0.4l-0.1,1.5c0,0.2-0.2,0.4-0.4,0.4
					C39.8-88.2,39.6-88.4,39.6-88.6z"/>
				<path class="st1" d="M38.1-86.7l0.2-3.5c0-0.2,0.2-0.4,0.4-0.4c0.2,0,0.4,0.2,0.4,0.4l-0.2,3.5c0,0.2-0.2,0.4-0.4,0.4
					C38.3-86.3,38.1-86.5,38.1-86.7z"/>
				<path class="st1" d="M36.9-88.7l0.1-1.5c0-0.2,0.2-0.4,0.4-0.4c0.2,0,0.4,0.2,0.4,0.4l-0.1,1.5c0,0.2-0.2,0.4-0.4,0.4
					C37.1-88.3,36.9-88.5,36.9-88.7z"/>
				<path class="st1" d="M35.5-88.8l0.1-1.5c0-0.2,0.2-0.4,0.4-0.4c0.2,0,0.4,0.2,0.4,0.4l-0.1,1.5c0,0.2-0.2,0.4-0.4,0.4
					C35.7-88.4,35.5-88.6,35.5-88.8z"/>
			</g>
			<g>
				
					<rect x="31.8" y="-115.8" transform="matrix(0.3075 -0.9516 0.9516 0.3075 141.3162 -35.2247)" class="st3" width="29.3" height="2.2"/>
				
					<rect x="34.5" y="-117.4" transform="matrix(0.3078 -0.9514 0.9514 0.3078 144.0325 -33.1892)" class="st3" width="29.3" height="3.6"/>
				
					<rect x="37.3" y="-117.6" transform="matrix(0.3078 -0.9515 0.9515 0.3078 146.7856 -31.197)" class="st3" width="29.3" height="2.2"/>
				<polygon class="st3" points="55.3,-96.9 55.8,-97.1 57.5,-102.9 55.4,-102.2 				"/>
				<polygon class="st3" points="55.2,-96.9 54.5,-96.6 49.9,-100.4 52,-101.1 				"/>
				<polygon class="st3" points="54.8,-96.8 55.4,-96.9 55.5,-102.2 52,-101.1 				"/>
				<polygon class="st6" points="55.6,-95.6 53.6,-97.4 56.1,-98.2 				"/>
			</g>
			<g>
				<g>
					<path class="st5" d="M40.6-102c1.1-2.1-2.5-6.1-8.1-9c-5.7-2.9-11-3.6-12.1-1.4c-1.1,2.1,2.5,6.1,8.1,9
						C34.2-100.6,39.4-99.9,40.6-102z M21-112.2c0.8-1.5,5.5-1.2,11.1,1.7c5.7,2.9,8.6,6.6,7.8,8.1c-0.8,1.5-5.5,1.2-11.1-1.7
						C23.1-107.1,20.2-110.7,21-112.2z"/>
					<path class="st5" d="M40.6-102c1.1-2.1-2.5-6.1-8.1-9c-5.7-2.9-11-3.6-12.1-1.4c-1.1,2.1,2.5,6.1,8.1,9
						C34.2-100.6,39.4-99.9,40.6-102z M21-112.2c0.8-1.5,5.5-1.2,11.1,1.7c5.7,2.9,8.6,6.6,7.8,8.1c-0.8,1.5-5.5,1.2-11.1-1.7
						C23.1-107.1,20.2-110.7,21-112.2z"/>
				</g>
				<g>
					<path class="st5" d="M41.1-109c0.3-0.6,0.4-1.2,0.2-1.7c-0.7-2.3-6-2.6-12.1-0.6c-4.6,1.5-8.2,3.7-9.3,5.8
						c-0.3,0.6-0.4,1.2-0.2,1.7c0.7,2.3,6.1,2.6,12.1,0.6C36.3-104.7,40-106.9,41.1-109z M20.5-105.2c1-1.9,4.6-4.1,8.9-5.4
						c6.1-1.9,10.7-1.5,11.3,0.2c0.1,0.3,0,0.7-0.2,1.2c-1,1.9-4.6,4.1-8.9,5.5c-6.1,1.9-10.7,1.5-11.3-0.2
						C20.2-104.4,20.2-104.8,20.5-105.2z"/>
					<path class="st5" d="M41.1-109c0.3-0.6,0.4-1.2,0.2-1.7c-0.7-2.3-6-2.6-12.1-0.6c-4.6,1.5-8.2,3.7-9.3,5.8
						c-0.3,0.6-0.4,1.2-0.2,1.7c0.7,2.3,6.1,2.6,12.1,0.6C36.3-104.7,40-106.9,41.1-109z M20.5-105.2c1-1.9,4.6-4.1,8.9-5.4
						c6.1-1.9,10.7-1.5,11.3,0.2c0.1,0.3,0,0.7-0.2,1.2c-1,1.9-4.6,4.1-8.9,5.5c-6.1,1.9-10.7,1.5-11.3-0.2
						C20.2-104.4,20.2-104.8,20.5-105.2z"/>
				</g>
				<g>
					<path class="st5" d="M39.7-101.2c0.6,0.3,1.2,0.1,1.5-0.5c0.3-0.6,0.1-1.2-0.5-1.5c-0.6-0.3-1.2-0.1-1.5,0.5
						C39-102.2,39.2-101.5,39.7-101.2z"/>
					<path class="st5" d="M39.7-101.2c0.6,0.3,1.2,0.1,1.5-0.5c0.3-0.6,0.1-1.2-0.5-1.5c-0.6-0.3-1.2-0.1-1.5,0.5
						C39-102.2,39.2-101.5,39.7-101.2z"/>
				</g>
			</g>
			<g>
				<path class="st2" d="M65.4-104.5c-0.2,0.1-0.4,0-0.6-0.2c-1.9-3.6-2.3-7.7-1.2-11.5c1.1-3.8,3.6-6.9,7.1-8.7
					c7.1-3.7,16.1-0.7,19.9,6.7c0.1,0.1,0.1,0.2,0,0.4c0,0.1-0.1,0.2-0.2,0.3L65.4-104.5C65.5-104.5,65.4-104.5,65.4-104.5z
					 M73.7-125c-0.8,0.2-1.7,0.6-2.5,1c-3.2,1.7-5.6,4.6-6.6,8.1c-1,3.4-0.7,7.1,0.9,10.3l24.1-12.6C86.3-124,79.7-126.7,73.7-125z"
					/>
				<path class="st2" d="M69.5-111.5c-0.1,0-0.2,0-0.3,0c-0.1,0-0.2-0.1-0.3-0.2c-1.5-2.9,0.3-6.8,4.1-8.8c3.8-2,8.1-1.2,9.6,1.7
					c0.1,0.1,0.1,0.2,0,0.4c0,0.1-0.1,0.2-0.2,0.3L69.5-111.5C69.5-111.5,69.5-111.5,69.5-111.5z M75.2-120.4
					c-0.6,0.2-1.2,0.4-1.7,0.7c-3.1,1.6-4.8,4.7-3.9,7.1l11.9-6.2C80.3-120.5,77.8-121.1,75.2-120.4z"/>
				<g>
					<path class="st2" d="M68.6-106.2c-0.2,0.1-0.4,0-0.6-0.2l-1.3-2.4c-0.1-0.2,0-0.5,0.2-0.6c0.2-0.1,0.5,0,0.6,0.2l1.3,2.4
						C69-106.7,68.9-106.4,68.6-106.2C68.6-106.2,68.6-106.2,68.6-106.2z"/>
					<path class="st2" d="M70.1-107c-0.2,0.1-0.4,0-0.6-0.2l-0.6-1.2c-0.1-0.2,0-0.5,0.2-0.6c0.2-0.1,0.5,0,0.6,0.2l0.6,1.2
						C70.5-107.5,70.4-107.2,70.1-107C70.2-107,70.1-107,70.1-107z"/>
					<path class="st2" d="M71.7-107.8c-0.2,0.1-0.4,0-0.6-0.2l-0.6-1.2c-0.1-0.2,0-0.5,0.2-0.6c0.2-0.1,0.5,0,0.6,0.2l0.6,1.2
						C72.1-108.3,72-108,71.7-107.8C71.7-107.9,71.7-107.8,71.7-107.8z"/>
					<path class="st2" d="M73.2-108.6c-0.2,0.1-0.4,0-0.6-0.2l-0.6-1.2c-0.1-0.2,0-0.5,0.2-0.6c0.2-0.1,0.5,0,0.6,0.2l0.6,1.2
						C73.6-109.1,73.5-108.8,73.2-108.6C73.3-108.7,73.2-108.6,73.2-108.6z"/>
					<path class="st2" d="M74.8-109.4c-0.2,0.1-0.4,0-0.6-0.2l-1.3-2.4c-0.1-0.2,0-0.5,0.2-0.6c0.2-0.1,0.5,0,0.6,0.2l1.3,2.4
						C75.2-109.9,75.1-109.6,74.8-109.4C74.8-109.5,74.8-109.5,74.8-109.4z"/>
					<path class="st2" d="M76.3-110.2c-0.2,0.1-0.4,0-0.6-0.2l-0.6-1.2c-0.1-0.2,0-0.5,0.2-0.6c0.2-0.1,0.5,0,0.6,0.2l0.6,1.2
						C76.7-110.7,76.6-110.4,76.3-110.2C76.4-110.3,76.3-110.3,76.3-110.2z"/>
					<path class="st2" d="M77.9-111.1c-0.2,0.1-0.4,0-0.6-0.2l-0.6-1.2c-0.1-0.2,0-0.5,0.2-0.6c0.2-0.1,0.5,0,0.6,0.2l0.6,1.2
						C78.3-111.5,78.2-111.2,77.9-111.1C77.9-111.1,77.9-111.1,77.9-111.1z"/>
					<path class="st2" d="M79.4-111.9c-0.2,0.1-0.4,0-0.6-0.2l-0.6-1.2c-0.1-0.2,0-0.5,0.2-0.6c0.2-0.1,0.5,0,0.6,0.2l0.6,1.2
						C79.8-112.3,79.7-112,79.4-111.9C79.5-111.9,79.4-111.9,79.4-111.9z"/>
					<path class="st2" d="M81-112.7c-0.2,0.1-0.4,0-0.6-0.2l-1.3-2.4c-0.1-0.2,0-0.5,0.2-0.6c0.2-0.1,0.5,0,0.6,0.2l1.3,2.4
						C81.4-113.1,81.3-112.8,81-112.7C81-112.7,81-112.7,81-112.7z"/>
					<path class="st2" d="M82.5-113.5c-0.2,0.1-0.4,0-0.6-0.2l-0.6-1.2c-0.1-0.2,0-0.5,0.2-0.6c0.2-0.1,0.5,0,0.6,0.2l0.6,1.2
						C82.9-113.9,82.8-113.6,82.5-113.5C82.6-113.5,82.5-113.5,82.5-113.5z"/>
					<path class="st2" d="M84.1-114.3c-0.2,0.1-0.4,0-0.6-0.2l-0.6-1.2c-0.1-0.2,0-0.5,0.2-0.6c0.2-0.1,0.5,0,0.6,0.2l0.6,1.2
						C84.5-114.7,84.4-114.4,84.1-114.3C84.1-114.3,84.1-114.3,84.1-114.3z"/>
					<path class="st2" d="M85.6-115.1c-0.2,0.1-0.4,0-0.6-0.2l-0.6-1.2c-0.1-0.2,0-0.5,0.2-0.6c0.2-0.1,0.5,0,0.6,0.2l0.6,1.2
						C86-115.5,85.9-115.2,85.6-115.1C85.7-115.1,85.6-115.1,85.6-115.1z"/>
					<path class="st2" d="M87.2-115.9c-0.2,0.1-0.4,0-0.6-0.2l-1.3-2.4c-0.1-0.2,0-0.5,0.2-0.6c0.2-0.1,0.5,0,0.6,0.2l1.3,2.4
						C87.6-116.3,87.5-116.1,87.2-115.9C87.2-115.9,87.2-115.9,87.2-115.9z"/>
				</g>
			</g>
			<g>
				<path class="st2" d="M59.9-72.4c-1.8-1.5-2.3-4.2-1.1-6.3l2.7-4.8c0,0,0-0.1,0.1-0.1c0.1-0.1,1.9-1.7,5.5,0.3
					c3.6,2,3.4,4.5,3.4,4.6c0,0.1,0,0.1-0.1,0.2l-2.7,4.8c-1.4,2.5-4.5,3.3-6.9,2C60.4-71.9,60.1-72.1,59.9-72.4z M62.2-83l-2.6,4.8
					c-1.1,2-0.4,4.6,1.6,5.7c2,1.1,4.6,0.4,5.7-1.6l2.6-4.8c0-0.4-0.2-2.1-2.9-3.6C63.8-84.1,62.4-83.2,62.2-83z"/>
				<path class="st2" d="M59.6-79.5c-0.2-0.1-0.2-0.4-0.1-0.5l0.6-1.2c0.1-0.1,0.2-0.2,0.3-0.2c0.1,0,0.2,0,0.3,0l8.1,4.5
					c0.1,0.1,0.2,0.2,0.2,0.3c0,0.1,0,0.2,0,0.3l-0.6,1.2C68.3-75,68-74.9,67.8-75L59.6-79.5C59.6-79.5,59.6-79.5,59.6-79.5z
					 M60.7-80.4L60.5-80l7.3,4.1l0.2-0.4L60.7-80.4z"/>
				<path class="st2" d="M58.5-77.6c-0.1-0.1-0.1-0.1-0.1-0.2c0-0.1,0-0.2,0-0.3l0.6-1.2c0.1-0.2,0.4-0.3,0.6-0.2l8.1,4.5
					c0.2,0.1,0.3,0.4,0.2,0.6l-0.6,1.2c-0.1,0.1-0.2,0.2-0.3,0.2c-0.1,0-0.2,0-0.3,0L58.5-77.6C58.6-77.6,58.6-77.6,58.5-77.6z
					 M59.6-78.5l-0.2,0.4l7.3,4.1l0.2-0.4L59.6-78.5z"/>
				<path class="st2" d="M63.7-80.7c-3.4-2.9-4.4-7.9-2.2-12c2.6-4.7,8.5-6.4,13.1-3.8c2.3,1.2,3.9,3.3,4.6,5.8
					c0.7,2.5,0.4,5.1-0.8,7.3c-2.6,4.7-8.5,6.4-13.1,3.8C64.7-79.9,64.2-80.3,63.7-80.7z M62.3-92.3c-2.3,4.2-0.8,9.6,3.4,11.9
					c4.2,2.3,9.6,0.8,11.9-3.4c1.1-2.1,1.4-4.4,0.7-6.7c-0.7-2.3-2.1-4.1-4.2-5.3c-2.1-1.1-4.4-1.4-6.7-0.7
					C65.3-95.8,63.4-94.3,62.3-92.3L62.3-92.3z"/>
				<path class="st2" d="M64.4-83.4c0,0-0.1-0.1-0.1-0.2c-0.1-0.1-0.1-0.3,0-0.4l2.3-4.2c0.4-0.7,1-1.2,1.7-1.4
					c0.7-0.2,1.5-0.1,2.2,0.2c1.4,0.8,1.9,2.5,1.1,3.9l-2.4,4.3c-0.1,0.1-0.2,0.2-0.3,0.2c-0.1,0-0.3,0-0.4-0.1
					c-0.2-0.2-0.3-0.3-0.5-0.5c-0.2-0.1-0.2-0.4-0.1-0.5l2.3-4.1c0.2-0.3,0.2-0.6,0.1-1c-0.1-0.3-0.3-0.6-0.6-0.8
					c-0.3-0.2-0.6-0.2-1-0.1c-0.3,0.1-0.6,0.3-0.8,0.6c0,0,0,0,0,0l-2.2,4.1c-0.1,0.2-0.3,0.3-0.5,0.2c-0.2-0.1-0.5-0.1-0.7-0.2
					C64.5-83.4,64.4-83.4,64.4-83.4z"/>
			</g>
		</g>
		<g>
			<g>
				<path class="st2" d="M141.2-119.5c-1.8-1.5-2.3-4.2-1.1-6.3l2.7-4.8c0,0,0-0.1,0.1-0.1c0.1-0.1,1.9-1.7,5.5,0.3
					c3.6,2,3.4,4.5,3.4,4.6c0,0.1,0,0.1-0.1,0.2l-2.7,4.8c-1.4,2.5-4.5,3.3-6.9,2C141.7-119.1,141.4-119.3,141.2-119.5z
					 M143.4-130.1l-2.6,4.8c-1.1,2-0.4,4.6,1.6,5.7c2,1.1,4.6,0.4,5.7-1.6l2.6-4.8c0-0.4-0.2-2.1-2.9-3.6
					C145.1-131.2,143.7-130.3,143.4-130.1z"/>
				<path class="st2" d="M140.9-126.7c-0.2-0.1-0.2-0.4-0.1-0.5l0.6-1.2c0.1-0.1,0.2-0.2,0.3-0.2c0.1,0,0.2,0,0.3,0l8.1,4.5
					c0.1,0.1,0.2,0.2,0.2,0.3c0,0.1,0,0.2,0,0.3l-0.6,1.2c-0.1,0.2-0.4,0.3-0.6,0.2L140.9-126.7
					C140.9-126.6,140.9-126.6,140.9-126.7z M142-127.6l-0.2,0.4l7.3,4.1l0.2-0.4L142-127.6z"/>
				<path class="st2" d="M139.8-124.8c-0.1-0.1-0.1-0.1-0.1-0.2c0-0.1,0-0.2,0-0.3l0.6-1.2c0.1-0.2,0.4-0.3,0.6-0.2l8.1,4.5
					c0.2,0.1,0.3,0.4,0.2,0.6l-0.6,1.2c-0.1,0.1-0.2,0.2-0.3,0.2c-0.1,0-0.2,0-0.3,0L139.8-124.8
					C139.9-124.7,139.9-124.8,139.8-124.8z M140.9-125.7l-0.2,0.4l7.3,4.1l0.2-0.4L140.9-125.7z"/>
				<path class="st2" d="M145-127.9c-3.4-2.9-4.4-7.9-2.2-12c2.6-4.7,8.5-6.4,13.1-3.8c2.3,1.2,3.9,3.3,4.6,5.8
					c0.7,2.5,0.4,5.1-0.8,7.3c-2.6,4.7-8.5,6.4-13.1,3.8C146-127,145.4-127.4,145-127.9z M143.6-139.4c-2.3,4.2-0.8,9.6,3.4,11.9
					c4.2,2.3,9.6,0.8,11.9-3.4c1.1-2.1,1.4-4.4,0.7-6.7c-0.7-2.3-2.1-4.1-4.2-5.3c-2.1-1.1-4.4-1.4-6.7-0.7
					C146.6-143,144.7-141.5,143.6-139.4L143.6-139.4z"/>
			</g>
		</g>
	</g>
</pattern>
<g>
	<pattern  id="SVGID_1_" xlink:href="#New_Pattern_3" patternTransform="matrix(1 0 0 1 -282.6512 35.1951)">
	</pattern>
	<rect x="-0.2" y="-0.2" class="st7" width="750" height="500"/>
</g>
</svg>
