<?xml version="1.0" encoding="utf-8"?>
<!-- Generator: Adobe Illustrator 24.1.2, SVG Export Plug-In . SVG Version: 6.00 Build 0)  -->
<svg version="1.1" id="Layer_1" xmlns="http://www.w3.org/2000/svg" xmlns:xlink="http://www.w3.org/1999/xlink" x="0px" y="0px"
	 viewBox="0 0 522 377" style="enable-background:new 0 0 522 377;" xml:space="preserve">
<style type="text/css">
	.st0{fill:#F8F8F8;}
</style>
<g>
	<g>
		<g>
			<path class="st0" d="M509.8,28.7c0,0-18.5-19.5-43.5-5.7c-16.4,9.1-17.1,27.8-17.1,27.8c-4.3-1.8-9.7-2.6-16.3-2.1
				c-19.9,1.4-20.4,13.8-20.4,13.8s-36.1-12.4-59.3,8.2c-23.2,20.6-8.3,38.3-8.3,38.3c-25.5-5.7-28.2,9.9-28.2,9.9l-6.5-1.8
				c8.5-18.6-12.2-19.7-19.4-19.6c-0.1-0.5-0.1-0.4-0.2-0.9c5.6-2.8,19.7-11.6,9.9-26.3c-12-18.1-31.1-15.9-42-13.4
				c-3.1,0.7-7,2.1-11,4c2.4-5.1,11.7-27.4-4-36c-13.5-7.4-25.4,8.9-30.4,17.3c1.7-4,3-9.6-1.8-12.6c-7.8-5.1-18.1,4.4-18.1,4.4
				c8.3-25.7-1.3-31.2-9.7-33.1c-18.7-4.2-26.1,21.1-26.1,21.1c-1-13.2-6.2-14.7-10.2-14.3c-2.5,0.3-5.9,3-6.5,7.1
				c-0.8-5.5-5.7-3.7-5.7-3.7s-17.5-3.3-13.7,16.7c0,0-42.8-31-56.9,7.2c0,0-19.9-25.5-37.9-11.1c-17.9,14.5-5.4,34.9-5.4,34.9l0,0
				C15,49.1,0,53.5,0,65v122.7v188.9h521.8v-189V29.4c0-7.5-11-8.3-12-0.9C509.8,28.7,509.8,28.7,509.8,28.7z"/>
		</g>
	</g>
</g>
</svg>
