<?xml version="1.0" encoding="utf-8"?>
<!-- Generator: Adobe Illustrator 24.1.2, SVG Export Plug-In . SVG Version: 6.00 Build 0)  -->
<svg version="1.1" id="Layer_1" xmlns="http://www.w3.org/2000/svg" xmlns:xlink="http://www.w3.org/1999/xlink" x="0px" y="0px"
	 viewBox="0 0 155 80.6" style="enable-background:new 0 0 155 80.6;" xml:space="preserve">
<style type="text/css">
	.st0{fill:#00C140;}
	.st1{fill:#DAD4D4;}
	.st2{fill:#C1C3C2;}
	.st3{fill:#FFFFFF;}
	.st4{fill:#F3F3F3;}
	.st5{fill:#FFD63F;}
	.st6{fill:#00C9F3;}
	.st7{fill:#FA4B32;}
	.st8{fill:#FF5E78;}
	.st9{fill:#C6BCB2;}
	.st10{fill:#FBC164;}
	.st11{fill:none;stroke:#A3A19C;stroke-width:1.2867;stroke-linecap:round;stroke-linejoin:round;stroke-miterlimit:10;}
</style>
<g>
	<g>
		<g>
			<g>
				<g>
					<path class="st0" d="M56.9,64.3c0,0,7.8-11.4,28.4-16L64.7,2.5L39,28.2L2.4,38.2L25.8,78C25.8,77.6,40.9,65.2,56.9,64.3z"/>
					<path class="st1" d="M39,28.2C39,28.2,45,9.4,67,3.9l20.1,41.2c0,0-16-3.2-30.2,19.2L39,28.2z"/>
					<path class="st2" d="M42.7,36.4c0,0-17.8-11.9-39.8-0.9l19.7,39.4c0,0,11-11.4,33.9-11L42.7,36.4z"/>
					<path class="st1" d="M56.9,64.3c0,0-12.4-2.7-32.9,9.2L3.8,31.4c0,0,14.6-10.5,35.2-0.9L56.9,64.3z"/>
					<path class="st3" d="M38.1,26.3c0,0-15.6-13.7-31.1-0.9l18.8,38.4c0,0,22-7.3,31.6,0.5L38.1,26.3z"/>
					<path class="st4" d="M38.1,26.3c0,0,5.5-17.4,23.8-23.8l23.8,42.1c0,0-17.8,4.1-28.8,19.7L38.1,26.3z"/>
				</g>
				<g>
					<g>
						<g>
							<path class="st5" d="M64.7,31.8c1.4,2.7,0.5,5.9-3.2,8.2l-6.9,5l-8.7-16l6.4-5c3.2-2.3,5.9-2.3,7.3,0.5c0.9,1.8,0.9,3.2,0,5
								C61.9,29.1,63.3,29.5,64.7,31.8z M50.5,29.5l1.8,3.7l3.2-2.3c1.4-0.9,1.8-2.3,1.4-3.7c-0.5-1.4-1.8-1.4-3.2,0L50.5,29.5z
								 M61,33.6c-0.9-1.4-1.8-1.4-3.7,0l-3.7,2.7l2.3,4.1l3.7-2.7C61.5,36.4,61.9,35,61,33.6z"/>
						</g>
					</g>
					<g>
						<g>
							<path class="st6" d="M50.5,25l2.7,4.6l-2.3,1.4L50.5,30c0,0.9-0.5,1.8-1.8,2.7c-1.8,0.9-3.7,0.9-4.6-0.5
								c-0.9-1.4-0.5-3.2,2.3-4.6l1.8-0.9c-0.5-0.9-1.4-1.4-2.7-0.5c-1.4,0-1.8,0.5-2.3,1.4l-1.8-0.9c0.5-1.4,1.8-2.3,2.7-3.2
								C46.8,22.2,49.1,22.2,50.5,25z M49.6,28.2l-0.5-0.9l-1.8,0.9c-0.9,0.5-1.4,1.4-0.9,1.8c0.5,0.5,0.9,0.9,1.8,0
								C49.1,30,49.6,29.1,49.6,28.2z"/>
						</g>
					</g>
					<g>
						<path class="st7" d="M59.6,40.5c-1.8-4.6,0.5-9.2,5.5-11c3.2-1.4,6.4-0.9,8.2,1.4l-2.7,2.7c-1.4-0.9-2.7-1.4-4.1-0.9
							c-2.3,0.9-3.2,3.2-2.3,5.9c0.9,2.7,3.2,3.7,5.5,2.7c1.4-0.5,2.3-1.8,2.7-3.2l4.1,0.5c0,2.7-2.3,5-5.5,6.4
							C66,46.9,61.5,45.1,59.6,40.5z"/>
					</g>
				</g>
			</g>
			<g>
				<path class="st7" d="M57.4,51l-1.8,3.7l4.1,1.8l-1.4,3.2l3.2,2.3l-3.2,4.1l43.5-10.1c1.4-11-5.5-14.2-5.5-14.2L56,51H57.4z"/>
				<g>
					<path class="st8" d="M108.1,55.2c0,0,11.4,1.4,10.1-9.2c-1.4-10.5-13.3-5.9-13.3-5.9C114.1,48.3,108.1,55.2,108.1,55.2z"/>
					<path class="st9" d="M101.3,56.1l6.9-1.4c0,0,5.9-6.4-3.2-15.6l-9.2,2.3C95.8,41.9,102.7,45.5,101.3,56.1z"/>
				</g>
				<g>
					<path class="st10" d="M53.2,64.8l4.6,1.8l3.2-4.1l-3.2-2.3l1.4-3.2l-4.1-1.8l1.8-3.7h-2.3L50,55.6
						C54.6,58.8,54.1,62.5,53.2,64.8z"/>
					<path class="st7" d="M53.2,64.8c0.9-2.3,1.4-5.9-2.3-10.1l-7.3,6.4L53.2,64.8z"/>
				</g>
				<path class="st11" d="M103.1,53.8c0,0,1.8-7.3-2.7-11.4"/>
				<path class="st11" d="M105.9,52.9c0,0,0.9-4.1,0-7.8"/>
			</g>
			<g>
				<path class="st5" d="M92.1,50.6l-2.7,3.2l3.7,2.7l-2.3,3.2l2.7,3.2l-4.1,3.2l44.4-1.8c3.7-10.5-2.7-15.1-2.7-15.1l-41.2,0.9
					L92.1,50.6z"/>
				<g>
					<path class="st8" d="M140.6,64.3c0,0,11,3.2,11.9-7.3s-11.9-8.7-11.9-8.7C148,58.8,140.6,64.3,140.6,64.3z"/>
					<path class="st9" d="M133.8,63.8h6.9c0,0,6.9-5.5-0.5-15.6l-9.2,0.9C131,49.2,137.4,53.8,133.8,63.8z"/>
				</g>
				<g>
					<path class="st10" d="M85.3,63.4l4.1,2.7l4.1-3.2l-2.7-3.2l2.3-3.2l-3.7-2.7l2.7-3.2l-2.3-0.5l-5,3.2
						C87.6,57.4,86.2,61.1,85.3,63.4z"/>
					<path class="st5" d="M85.3,63.4c1.4-1.8,2.3-5.5-0.5-10.1l-8.2,5L85.3,63.4z"/>
				</g>
				<path class="st11" d="M136.5,62c0,0,3.2-6.9-0.5-11.4"/>
				<path class="st11" d="M138.8,62c0,0,1.8-3.7,1.4-7.3"/>
			</g>
		</g>
	</g>
</g>
</svg>
